<svg xmlns="http://www.w3.org/2000/svg" viewBox="0 0 1024 1024"><g transform="translate(37.38,-3.92) scale(0.76489)"><path d="M 787.0 670.0 C 786.2 670.5, 784.5 672.5, 783.0 674.0 C 781.5 675.5, 779.7 677.3, 778.0 679.0 C 776.3 680.7, 774.7 682.3, 773.0 684.0 C 771.3 685.7, 769.7 687.3, 768.0 689.0 C 766.3 690.7, 764.7 692.3, 763.0 694.0 C 761.3 695.7, 758.7 697.3, 758.0 699.0 C 757.3 700.7, 758.5 702.3, 759.0 704.0 C 759.5 705.7, 760.0 707.3, 761.0 709.0 C 762.0 710.7, 763.8 712.3, 765.0 714.0 C 766.2 715.7, 767.0 717.3, 768.0 719.0 C 769.0 720.7, 770.0 722.3, 771.0 724.0 C 772.0 725.7, 772.8 727.3, 774.0 729.0 C 775.2 730.7, 776.8 732.3, 778.0 734.0 C 779.2 735.7, 779.8 737.3, 781.0 739.0 C 782.2 740.7, 783.8 742.3, 785.0 744.0 C 786.2 745.7, 786.8 747.3, 788.0 749.0 C 789.2 750.7, 790.5 752.3, 792.0 754.0 C 793.5 755.7, 795.5 757.3, 797.0 759.0 C 798.5 760.7, 799.7 762.3, 801.0 764.0 C 802.3 765.7, 803.7 767.3, 805.0 769.0 C 806.3 770.7, 807.5 772.3, 809.0 774.0 C 810.5 775.7, 812.3 777.3, 814.0 779.0 C 815.7 780.7, 817.3 782.3, 819.0 784.0 C 820.7 785.7, 822.5 787.3, 824.0 789.0 C 825.5 790.7, 826.5 792.3, 828.0 794.0 C 829.5 795.7, 831.3 797.3, 833.0 799.0 C 834.7 800.7, 836.3 802.5, 838.0 804.0 C 839.7 805.5, 841.3 806.5, 843.0 808.0 C 844.7 809.5, 846.3 811.5, 848.0 813.0 C 849.7 814.5, 851.3 815.5, 853.0 817.0 C 854.7 818.5, 856.3 820.5, 858.0 822.0 C 859.7 823.5, 861.3 824.5, 863.0 826.0 C 864.7 827.5, 866.3 829.5, 868.0 831.0 C 869.7 832.5, 871.3 833.7, 873.0 835.0 C 874.7 836.3, 876.3 837.5, 878.0 839.0 C 879.7 840.5, 881.3 842.5, 883.0 844.0 C 884.7 845.5, 886.3 846.7, 888.0 848.0 C 889.7 849.3, 891.3 850.7, 893.0 852.0 C 894.7 853.3, 896.3 854.5, 898.0 856.0 C 899.7 857.5, 901.3 859.5, 903.0 861.0 C 904.7 862.5, 906.3 863.7, 908.0 865.0 C 909.7 866.3, 911.3 867.7, 913.0 869.0 C 914.7 870.3, 916.3 871.5, 918.0 873.0 C 919.7 874.5, 921.3 876.5, 923.0 878.0 C 924.7 879.5, 926.3 880.5, 928.0 882.0 C 929.7 883.5, 931.3 885.5, 933.0 887.0 C 934.7 888.5, 936.3 889.5, 938.0 891.0 C 939.7 892.5, 941.3 894.5, 943.0 896.0 C 944.7 897.5, 946.3 898.5, 948.0 900.0 C 949.7 901.5, 951.3 903.3, 953.0 905.0 C 954.7 906.7, 956.3 908.3, 958.0 910.0 C 959.7 911.7, 961.3 913.3, 963.0 915.0 C 964.7 916.7, 966.3 918.3, 968.0 920.0 C 969.7 921.7, 971.3 923.3, 973.0 925.0 C 974.7 926.7, 976.5 928.3, 978.0 930.0 C 979.5 931.7, 980.5 933.3, 982.0 935.0 C 983.5 936.7, 985.5 938.3, 987.0 940.0 C 988.5 941.7, 989.7 943.3, 991.0 945.0 C 992.3 946.7, 993.7 948.3, 995.0 950.0 C 996.3 951.7, 997.7 953.3, 999.0 955.0 C 1000.3 956.7, 1001.8 958.3, 1003.0 960.0 C 1004.2 961.7, 1004.8 963.3, 1006.0 965.0 C 1007.2 966.7, 1008.8 968.3, 1010.0 970.0 C 1011.2 971.7, 1012.0 973.3, 1013.0 975.0 C 1014.0 976.7, 1014.8 978.3, 1016.0 980.0 C 1017.2 981.7, 1018.8 983.3, 1020.0 985.0 C 1021.2 986.7, 1022.2 988.3, 1023.0 990.0 C 1023.8 991.7, 1024.2 993.3, 1025.0 995.0 C 1025.8 996.7, 1027.2 998.3, 1028.0 1000.0 C 1028.8 1001.7, 1029.2 1003.3, 1030.0 1005.0 C 1030.8 1006.7, 1032.2 1008.3, 1033.0 1010.0 C 1033.8 1011.7, 1034.2 1013.2, 1035.0 1015.0 C 1035.8 1016.8, 1037.2 1019.2, 1038.0 1021.0 C 1038.8 1022.8, 1039.5 1024.3, 1040.0 1026.0 C 1040.5 1027.7, 1040.5 1029.3, 1041.0 1031.0 C 1041.5 1032.7, 1042.5 1034.3, 1043.0 1036.0 C 1043.5 1037.7, 1043.7 1039.3, 1044.0 1041.0 C 1044.3 1042.7, 1044.7 1044.3, 1045.0 1046.0 C 1045.3 1047.7, 1045.7 1049.3, 1046.0 1051.0 C 1046.3 1052.7, 1046.7 1054.3, 1047.0 1056.0 C 1047.3 1057.7, 1047.7 1059.3, 1048.0 1061.0 C 1048.3 1062.7, 1048.8 1064.3, 1049.0 1066.0 C 1049.2 1067.7, 1049.0 1069.3, 1049.0 1071.0 C 1049.0 1072.7, 1049.0 1074.3, 1049.0 1076.0 C 1049.0 1077.7, 1049.0 1079.3, 1049.0 1081.0 C 1049.0 1082.7, 1049.0 1084.3, 1049.0 1086.0 C 1049.0 1087.7, 1049.2 1089.3, 1049.0 1091.0 C 1048.8 1092.7, 1048.3 1094.3, 1048.0 1096.0 C 1047.7 1097.7, 1047.3 1099.3, 1047.0 1101.0 C 1046.7 1102.7, 1046.5 1104.3, 1046.0 1106.0 C 1045.5 1107.7, 1044.5 1109.3, 1044.0 1111.0 C 1043.5 1112.7, 1043.5 1114.3, 1043.0 1116.0 C 1042.5 1117.7, 1041.7 1119.3, 1041.0 1121.0 C 1040.3 1122.7, 1039.8 1124.3, 1039.0 1126.0 C 1038.2 1127.7, 1037.2 1129.3, 1036.0 1131.0 C 1034.8 1132.7, 1033.3 1134.3, 1032.0 1136.0 C 1030.7 1137.7, 1029.3 1139.3, 1028.0 1141.0 C 1026.7 1142.7, 1025.5 1144.5, 1024.0 1146.0 C 1022.5 1147.5, 1020.7 1148.7, 1019.0 1150.0 C 1017.3 1151.3, 1015.7 1152.7, 1014.0 1154.0 C 1012.3 1155.3, 1010.7 1156.8, 1009.0 1158.0 C 1007.3 1159.2, 1005.7 1160.2, 1004.0 1161.0 C 1002.3 1161.8, 1000.7 1162.5, 999.0 1163.0 C 997.3 1163.5, 995.7 1163.5, 994.0 1164.0 C 992.3 1164.5, 990.7 1165.5, 989.0 1166.0 C 987.3 1166.5, 985.7 1166.7, 984.0 1167.0 C 982.3 1167.3, 980.7 1167.7, 979.0 1168.0 C 977.3 1168.3, 975.7 1168.7, 974.0 1169.0 C 972.3 1169.3, 970.7 1169.8, 969.0 1170.0 C 967.3 1170.2, 965.7 1170.0, 964.0 1170.0 C 962.3 1170.0, 960.7 1169.8, 959.0 1170.0 C 957.3 1170.2, 955.7 1170.8, 954.0 1171.0 C 952.3 1171.2, 950.7 1171.0, 949.0 1171.0 C 947.3 1171.0, 945.7 1171.0, 944.0 1171.0 C 942.3 1171.0, 940.7 1171.0, 939.0 1171.0 C 937.3 1171.0, 935.7 1171.0, 934.0 1171.0 C 932.3 1171.0, 930.7 1171.0, 929.0 1171.0 C 927.3 1171.0, 925.7 1171.0, 924.0 1171.0 C 922.3 1171.0, 920.7 1171.0, 919.0 1171.0 C 917.3 1171.0, 915.7 1171.0, 914.0 1171.0 C 912.3 1171.0, 910.7 1171.0, 909.0 1171.0 C 907.3 1171.0, 905.7 1171.0, 904.0 1171.0 C 902.3 1171.0, 900.7 1171.0, 899.0 1171.0 C 897.3 1171.0, 895.7 1171.0, 894.0 1171.0 C 892.3 1171.0, 890.7 1171.0, 889.0 1171.0 C 887.3 1171.0, 885.7 1171.0, 884.0 1171.0 C 882.3 1171.0, 880.7 1171.0, 879.0 1171.0 C 877.3 1171.0, 875.7 1171.0, 874.0 1171.0 C 872.3 1171.0, 870.7 1171.0, 869.0 1171.0 C 867.3 1171.0, 865.7 1171.0, 864.0 1171.0 C 862.3 1171.0, 860.7 1171.0, 859.0 1171.0 C 857.3 1171.0, 855.7 1171.0, 854.0 1171.0 C 852.3 1171.0, 850.7 1171.0, 849.0 1171.0 C 847.3 1171.0, 845.7 1171.0, 844.0 1171.0 C 842.3 1171.0, 840.7 1171.0, 839.0 1171.0 C 837.3 1171.0, 835.7 1171.0, 834.0 1171.0 C 832.3 1171.0, 830.7 1171.0, 829.0 1171.0 C 827.3 1171.0, 825.7 1171.0, 824.0 1171.0 C 822.3 1171.0, 820.7 1171.0, 819.0 1171.0 C 817.3 1171.0, 815.7 1171.0, 814.0 1171.0 C 812.3 1171.0, 810.7 1171.0, 809.0 1171.0 C 807.3 1171.0, 805.7 1171.0, 804.0 1171.0 C 802.3 1171.0, 800.7 1171.0, 799.0 1171.0 C 797.3 1171.0, 795.7 1171.0, 794.0 1171.0 C 792.3 1171.0, 790.8 1171.0, 789.0 1171.0 C 787.2 1171.0, 784.8 1171.0, 783.0 1171.0 C 781.2 1171.0, 779.7 1171.0, 778.0 1171.0 C 776.3 1171.0, 774.7 1171.0, 773.0 1171.0 C 771.3 1171.0, 769.7 1171.0, 768.0 1171.0 C 766.3 1171.0, 764.7 1171.0, 763.0 1171.0 C 761.3 1171.0, 759.7 1171.0, 758.0 1171.0 C 756.3 1171.0, 754.7 1171.0, 753.0 1171.0 C 751.3 1171.0, 749.7 1171.0, 748.0 1171.0 C 746.3 1171.0, 744.7 1171.0, 743.0 1171.0 C 741.3 1171.0, 739.7 1171.0, 738.0 1171.0 C 736.3 1171.0, 734.7 1171.0, 733.0 1171.0 C 731.3 1171.0, 729.7 1171.0, 728.0 1171.0 C 726.3 1171.0, 724.7 1171.0, 723.0 1171.0 C 721.3 1171.0, 719.7 1171.0, 718.0 1171.0 C 716.3 1171.0, 714.7 1171.0, 713.0 1171.0 C 711.3 1171.0, 709.7 1171.0, 708.0 1171.0 C 706.3 1171.0, 704.7 1171.0, 703.0 1171.0 C 701.3 1171.0, 699.7 1171.0, 698.0 1171.0 C 696.3 1171.0, 694.7 1170.8, 693.0 1171.0 C 691.3 1171.2, 689.7 1171.2, 688.0 1172.0 C 686.3 1172.8, 684.7 1174.8, 683.0 1176.0 C 681.3 1177.2, 679.7 1177.8, 678.0 1179.0 C 676.3 1180.2, 674.7 1181.7, 673.0 1183.0 C 671.3 1184.3, 669.7 1185.8, 668.0 1187.0 C 666.3 1188.2, 664.7 1189.0, 663.0 1190.0 C 661.3 1191.0, 659.7 1192.0, 658.0 1193.0 C 656.3 1194.0, 654.7 1194.8, 653.0 1196.0 C 651.3 1197.2, 649.7 1198.8, 648.0 1200.0 C 646.3 1201.2, 644.7 1202.2, 643.0 1203.0 C 641.3 1203.8, 639.7 1204.2, 638.0 1205.0 C 636.3 1205.8, 633.2 1207.2, 633.0 1208.0 C 632.8 1208.8, 635.5 1209.7, 637.0 1210.0 C 638.5 1210.3, 640.3 1210.0, 642.0 1210.0 C 643.7 1210.0, 645.3 1210.0, 647.0 1210.0 C 648.7 1210.0, 650.3 1210.0, 652.0 1210.0 C 653.7 1210.0, 655.3 1210.0, 657.0 1210.0 C 658.7 1210.0, 660.3 1210.0, 662.0 1210.0 C 663.7 1210.0, 665.3 1210.0, 667.0 1210.0 C 668.7 1210.0, 670.3 1210.0, 672.0 1210.0 C 673.7 1210.0, 675.3 1210.0, 677.0 1210.0 C 678.7 1210.0, 680.3 1210.0, 682.0 1210.0 C 683.7 1210.0, 685.3 1210.0, 687.0 1210.0 C 688.7 1210.0, 690.3 1210.0, 692.0 1210.0 C 693.7 1210.0, 695.3 1210.0, 697.0 1210.0 C 698.7 1210.0, 700.3 1210.0, 702.0 1210.0 C 703.7 1210.0, 705.3 1210.0, 707.0 1210.0 C 708.7 1210.0, 710.3 1210.0, 712.0 1210.0 C 713.7 1210.0, 715.3 1210.0, 717.0 1210.0 C 718.7 1210.0, 720.3 1210.0, 722.0 1210.0 C 723.7 1210.0, 725.3 1210.0, 727.0 1210.0 C 728.7 1210.0, 730.3 1210.0, 732.0 1210.0 C 733.7 1210.0, 735.3 1210.0, 737.0 1210.0 C 738.7 1210.0, 740.3 1210.0, 742.0 1210.0 C 743.7 1210.0, 745.3 1210.0, 747.0 1210.0 C 748.7 1210.0, 750.3 1210.0, 752.0 1210.0 C 753.7 1210.0, 755.3 1210.0, 757.0 1210.0 C 758.7 1210.0, 760.3 1210.0, 762.0 1210.0 C 763.7 1210.0, 765.3 1210.0, 767.0 1210.0 C 768.7 1210.0, 770.3 1210.0, 772.0 1210.0 C 773.7 1210.0, 775.3 1210.0, 777.0 1210.0 C 778.7 1210.0, 780.3 1210.0, 782.0 1210.0 C 783.7 1210.0, 785.3 1210.0, 787.0 1210.0 C 788.7 1210.0, 790.3 1210.0, 792.0 1210.0 C 793.7 1210.0, 795.3 1210.0, 797.0 1210.0 C 798.7 1210.0, 800.3 1210.0, 802.0 1210.0 C 803.7 1210.0, 805.3 1210.0, 807.0 1210.0 C 808.7 1210.0, 810.3 1210.0, 812.0 1210.0 C 813.7 1210.0, 815.3 1210.0, 817.0 1210.0 C 818.7 1210.0, 820.3 1210.0, 822.0 1210.0 C 823.7 1210.0, 825.3 1210.0, 827.0 1210.0 C 828.7 1210.0, 830.3 1210.0, 832.0 1210.0 C 833.7 1210.0, 835.2 1210.0, 837.0 1210.0 C 838.8 1210.0, 841.2 1210.0, 843.0 1210.0 C 844.8 1210.0, 846.3 1210.0, 848.0 1210.0 C 849.7 1210.0, 851.3 1210.0, 853.0 1210.0 C 854.7 1210.0, 856.3 1210.0, 858.0 1210.0 C 859.7 1210.0, 861.3 1210.0, 863.0 1210.0 C 864.7 1210.0, 866.3 1210.0, 868.0 1210.0 C 869.7 1210.0, 871.3 1210.0, 873.0 1210.0 C 874.7 1210.0, 876.3 1210.0, 878.0 1210.0 C 879.7 1210.0, 881.3 1210.0, 883.0 1210.0 C 884.7 1210.0, 886.3 1210.0, 888.0 1210.0 C 889.7 1210.0, 891.3 1210.0, 893.0 1210.0 C 894.7 1210.0, 896.3 1210.0, 898.0 1210.0 C 899.7 1210.0, 901.3 1210.0, 903.0 1210.0 C 904.7 1210.0, 906.3 1210.0, 908.0 1210.0 C 909.7 1210.0, 911.3 1210.0, 913.0 1210.0 C 914.7 1210.0, 916.3 1210.0, 918.0 1210.0 C 919.7 1210.0, 921.3 1210.0, 923.0 1210.0 C 924.7 1210.0, 926.3 1210.0, 928.0 1210.0 C 929.7 1210.0, 931.3 1210.0, 933.0 1210.0 C 934.7 1210.0, 936.3 1210.0, 938.0 1210.0 C 939.7 1210.0, 941.3 1210.0, 943.0 1210.0 C 944.7 1210.0, 946.3 1210.0, 948.0 1210.0 C 949.7 1210.0, 951.3 1210.0, 953.0 1210.0 C 954.7 1210.0, 956.3 1210.0, 958.0 1210.0 C 959.7 1210.0, 961.3 1210.0, 963.0 1210.0 C 964.7 1210.0, 966.3 1210.2, 968.0 1210.0 C 969.7 1209.8, 971.3 1209.2, 973.0 1209.0 C 974.7 1208.8, 976.3 1209.2, 978.0 1209.0 C 979.7 1208.8, 981.3 1208.2, 983.0 1208.0 C 984.7 1207.8, 986.3 1208.2, 988.0 1208.0 C 989.7 1207.8, 991.3 1207.5, 993.0 1207.0 C 994.7 1206.5, 996.3 1205.5, 998.0 1205.0 C 999.7 1204.5, 1001.3 1204.5, 1003.0 1204.0 C 1004.7 1203.5, 1006.3 1202.7, 1008.0 1202.0 C 1009.7 1201.3, 1011.3 1200.7, 1013.0 1200.0 C 1014.7 1199.3, 1016.3 1198.7, 1018.0 1198.0 C 1019.7 1197.3, 1021.3 1196.8, 1023.0 1196.0 C 1024.7 1195.2, 1026.3 1194.0, 1028.0 1193.0 C 1029.7 1192.0, 1031.3 1191.2, 1033.0 1190.0 C 1034.7 1188.8, 1036.3 1187.2, 1038.0 1186.0 C 1039.7 1184.8, 1041.3 1184.3, 1043.0 1183.0 C 1044.7 1181.7, 1046.3 1179.5, 1048.0 1178.0 C 1049.7 1176.5, 1051.5 1175.5, 1053.0 1174.0 C 1054.5 1172.5, 1055.7 1170.7, 1057.0 1169.0 C 1058.3 1167.3, 1059.7 1165.7, 1061.0 1164.0 C 1062.3 1162.3, 1063.8 1160.7, 1065.0 1159.0 C 1066.2 1157.3, 1067.0 1155.7, 1068.0 1154.0 C 1069.0 1152.3, 1070.0 1150.7, 1071.0 1149.0 C 1072.0 1147.3, 1073.0 1145.7, 1074.0 1144.0 C 1075.0 1142.3, 1076.2 1140.7, 1077.0 1139.0 C 1077.8 1137.3, 1078.3 1135.7, 1079.0 1134.0 C 1079.7 1132.3, 1080.5 1130.7, 1081.0 1129.0 C 1081.5 1127.3, 1081.5 1125.7, 1082.0 1124.0 C 1082.5 1122.3, 1083.5 1120.7, 1084.0 1119.0 C 1084.5 1117.3, 1084.7 1115.7, 1085.0 1114.0 C 1085.3 1112.3, 1085.7 1110.7, 1086.0 1109.0 C 1086.3 1107.3, 1086.7 1105.7, 1087.0 1104.0 C 1087.3 1102.3, 1087.8 1100.7, 1088.0 1099.0 C 1088.2 1097.3, 1087.8 1095.7, 1088.0 1094.0 C 1088.2 1092.3, 1088.8 1090.7, 1089.0 1089.0 C 1089.2 1087.3, 1089.0 1085.7, 1089.0 1084.0 C 1089.0 1082.3, 1089.0 1080.7, 1089.0 1079.0 C 1089.0 1077.3, 1089.0 1075.7, 1089.0 1074.0 C 1089.0 1072.3, 1089.0 1070.7, 1089.0 1069.0 C 1089.0 1067.3, 1089.2 1065.7, 1089.0 1064.0 C 1088.8 1062.3, 1088.2 1060.7, 1088.0 1059.0 C 1087.8 1057.3, 1088.2 1055.7, 1088.0 1054.0 C 1087.8 1052.3, 1087.3 1050.7, 1087.0 1049.0 C 1086.7 1047.3, 1086.3 1045.7, 1086.0 1044.0 C 1085.7 1042.3, 1085.3 1040.7, 1085.0 1039.0 C 1084.7 1037.3, 1084.3 1035.7, 1084.0 1034.0 C 1083.7 1032.3, 1083.5 1030.7, 1083.0 1029.0 C 1082.5 1027.3, 1081.7 1025.8, 1081.0 1024.0 C 1080.3 1022.2, 1079.5 1019.8, 1079.0 1018.0 C 1078.5 1016.2, 1078.5 1014.7, 1078.0 1013.0 C 1077.5 1011.3, 1076.7 1009.7, 1076.0 1008.0 C 1075.3 1006.3, 1074.7 1004.7, 1074.0 1003.0 C 1073.3 1001.3, 1072.7 999.7, 1072.0 998.0 C 1071.3 996.3, 1070.7 994.7, 1070.0 993.0 C 1069.3 991.3, 1068.8 989.7, 1068.0 988.0 C 1067.2 986.3, 1065.8 984.7, 1065.0 983.0 C 1064.2 981.3, 1063.8 979.7, 1063.0 978.0 C 1062.2 976.3, 1061.0 974.7, 1060.0 973.0 C 1059.0 971.3, 1058.0 969.7, 1057.0 968.0 C 1056.0 966.3, 1055.0 964.7, 1054.0 963.0 C 1053.0 961.3, 1052.0 959.7, 1051.0 958.0 C 1050.0 956.3, 1049.0 954.7, 1048.0 953.0 C 1047.0 951.3, 1046.2 949.7, 1045.0 948.0 C 1043.8 946.3, 1042.3 944.7, 1041.0 943.0 C 1039.7 941.3, 1038.2 939.7, 1037.0 938.0 C 1035.8 936.3, 1035.2 934.7, 1034.0 933.0 C 1032.8 931.3, 1031.3 929.7, 1030.0 928.0 C 1028.7 926.3, 1027.3 924.7, 1026.0 923.0 C 1024.7 921.3, 1023.3 919.7, 1022.0 918.0 C 1020.7 916.3, 1019.5 914.7, 1018.0 913.0 C 1016.5 911.3, 1014.5 909.7, 1013.0 908.0 C 1011.5 906.3, 1010.5 904.7, 1009.0 903.0 C 1007.5 901.3, 1005.5 899.7, 1004.0 898.0 C 1002.5 896.3, 1001.5 894.7, 1000.0 893.0 C 998.5 891.3, 996.7 889.7, 995.0 888.0 C 993.3 886.3, 991.7 884.5, 990.0 883.0 C 988.3 881.5, 986.7 880.5, 985.0 879.0 C 983.3 877.5, 981.7 875.7, 980.0 874.0 C 978.3 872.3, 976.7 870.7, 975.0 869.0 C 973.3 867.3, 971.7 865.5, 970.0 864.0 C 968.3 862.5, 966.7 861.3, 965.0 860.0 C 963.3 858.7, 961.7 857.5, 960.0 856.0 C 958.3 854.5, 956.7 852.5, 955.0 851.0 C 953.3 849.5, 951.7 848.5, 950.0 847.0 C 948.3 845.5, 946.7 843.5, 945.0 842.0 C 943.3 840.5, 941.7 839.3, 940.0 838.0 C 938.3 836.7, 936.7 835.3, 935.0 834.0 C 933.3 832.7, 931.7 831.5, 930.0 830.0 C 928.3 828.5, 926.7 826.5, 925.0 825.0 C 923.3 823.5, 921.7 822.3, 920.0 821.0 C 918.3 819.7, 916.7 818.5, 915.0 817.0 C 913.3 815.5, 911.7 813.5, 910.0 812.0 C 908.3 810.5, 906.7 809.3, 905.0 808.0 C 903.3 806.7, 901.7 805.3, 900.0 804.0 C 898.3 802.7, 896.7 801.5, 895.0 800.0 C 893.3 798.5, 891.7 796.5, 890.0 795.0 C 888.3 793.5, 886.7 792.5, 885.0 791.0 C 883.3 789.5, 881.7 787.7, 880.0 786.0 C 878.3 784.3, 876.7 782.5, 875.0 781.0 C 873.3 779.5, 871.7 778.5, 870.0 777.0 C 868.3 775.5, 866.7 773.7, 865.0 772.0 C 863.3 770.3, 861.7 768.7, 860.0 767.0 C 858.3 765.3, 856.7 763.7, 855.0 762.0 C 853.3 760.3, 851.7 758.7, 850.0 757.0 C 848.3 755.3, 846.5 753.7, 845.0 752.0 C 843.5 750.3, 842.5 748.7, 841.0 747.0 C 839.5 745.3, 837.5 743.7, 836.0 742.0 C 834.5 740.3, 833.3 738.7, 832.0 737.0 C 830.7 735.3, 829.3 733.7, 828.0 732.0 C 826.7 730.3, 825.3 728.7, 824.0 727.0 C 822.7 725.3, 821.3 723.7, 820.0 722.0 C 818.7 720.3, 817.2 718.7, 816.0 717.0 C 814.8 715.3, 814.2 713.7, 813.0 712.0 C 811.8 710.3, 810.2 708.7, 809.0 707.0 C 807.8 705.3, 807.0 703.7, 806.0 702.0 C 805.0 700.3, 804.0 698.7, 803.0 697.0 C 802.0 695.3, 801.0 693.7, 800.0 692.0 C 799.0 690.3, 798.0 688.7, 797.0 687.0 C 796.0 685.3, 794.8 683.7, 794.0 682.0 C 793.2 680.3, 793.0 678.8, 792.0 677.0 C 791.0 675.2, 788.8 672.2, 788.0 671.0 C 787.2 669.8, 787.8 669.5, 787.0 670.0 Z M 508.0 291.0 C 507.3 291.8, 505.7 294.3, 505.0 296.0 C 504.3 297.7, 504.3 299.3, 504.0 301.0 C 503.7 302.7, 503.2 304.3, 503.0 306.0 C 502.8 307.7, 503.2 309.3, 503.0 311.0 C 502.8 312.7, 502.2 314.3, 502.0 316.0 C 501.8 317.7, 502.2 319.3, 502.0 321.0 C 501.8 322.7, 501.2 324.3, 501.0 326.0 C 500.8 327.7, 501.2 329.3, 501.0 331.0 C 500.8 332.7, 500.3 334.3, 500.0 336.0 C 499.7 337.7, 499.2 339.3, 499.0 341.0 C 498.8 342.7, 499.2 344.3, 499.0 346.0 C 498.8 347.7, 498.2 349.3, 498.0 351.0 C 497.8 352.7, 498.2 354.3, 498.0 356.0 C 497.8 357.7, 497.2 359.3, 497.0 361.0 C 496.8 362.7, 497.2 364.3, 497.0 366.0 C 496.8 367.7, 496.2 369.3, 496.0 371.0 C 495.8 372.7, 496.0 374.3, 496.0 376.0 C 496.0 377.7, 496.2 379.3, 496.0 381.0 C 495.8 382.7, 495.2 384.3, 495.0 386.0 C 494.8 387.7, 495.0 389.3, 495.0 391.0 C 495.0 392.7, 495.0 394.3, 495.0 396.0 C 495.0 397.7, 495.0 399.3, 495.0 401.0 C 495.0 402.7, 495.0 404.3, 495.0 406.0 C 495.0 407.7, 495.0 409.3, 495.0 411.0 C 495.0 412.7, 494.8 414.3, 495.0 416.0 C 495.2 417.7, 495.8 419.3, 496.0 421.0 C 496.2 422.7, 495.8 424.3, 496.0 426.0 C 496.2 427.7, 496.7 429.3, 497.0 431.0 C 497.3 432.7, 497.7 434.3, 498.0 436.0 C 498.3 437.7, 498.7 439.2, 499.0 441.0 C 499.3 442.8, 499.5 445.2, 500.0 447.0 C 500.5 448.8, 501.3 450.3, 502.0 452.0 C 502.7 453.7, 503.3 455.3, 504.0 457.0 C 504.7 458.7, 505.3 460.3, 506.0 462.0 C 506.7 463.7, 507.2 465.3, 508.0 467.0 C 508.8 468.7, 510.0 470.3, 511.0 472.0 C 512.0 473.7, 512.8 475.3, 514.0 477.0 C 515.2 478.7, 516.5 480.3, 518.0 482.0 C 519.5 483.7, 521.3 485.3, 523.0 487.0 C 524.7 488.7, 526.3 490.5, 528.0 492.0 C 529.7 493.5, 531.3 494.8, 533.0 496.0 C 534.7 497.2, 536.3 498.2, 538.0 499.0 C 539.7 499.8, 541.3 500.2, 543.0 501.0 C 544.7 501.8, 546.3 503.3, 548.0 504.0 C 549.7 504.7, 551.3 504.5, 553.0 505.0 C 554.7 505.5, 556.3 506.5, 558.0 507.0 C 559.7 507.5, 561.3 507.8, 563.0 508.0 C 564.7 508.2, 566.3 508.0, 568.0 508.0 C 569.7 508.0, 571.3 508.0, 573.0 508.0 C 574.7 508.0, 576.3 508.0, 578.0 508.0 C 579.7 508.0, 581.3 508.2, 583.0 508.0 C 584.7 507.8, 586.3 507.3, 588.0 507.0 C 589.7 506.7, 591.3 506.3, 593.0 506.0 C 594.7 505.7, 596.3 505.5, 598.0 505.0 C 599.7 504.5, 601.3 503.7, 603.0 503.0 C 604.7 502.3, 606.3 501.8, 608.0 501.0 C 609.7 500.2, 611.3 499.0, 613.0 498.0 C 614.7 497.0, 616.3 496.2, 618.0 495.0 C 619.7 493.8, 621.3 492.3, 623.0 491.0 C 624.7 489.7, 626.3 488.5, 628.0 487.0 C 629.7 485.5, 631.3 483.8, 633.0 482.0 C 634.7 480.2, 636.5 477.8, 638.0 476.0 C 639.5 474.2, 640.8 472.7, 642.0 471.0 C 643.2 469.3, 644.0 467.7, 645.0 466.0 C 646.0 464.3, 647.2 462.7, 648.0 461.0 C 648.8 459.3, 649.2 457.7, 650.0 456.0 C 650.8 454.3, 652.2 452.7, 653.0 451.0 C 653.8 449.3, 654.5 447.7, 655.0 446.0 C 655.5 444.3, 655.5 442.7, 656.0 441.0 C 656.5 439.3, 657.5 437.7, 658.0 436.0 C 658.5 434.3, 658.7 432.7, 659.0 431.0 C 659.3 429.3, 659.7 427.7, 660.0 426.0 C 660.3 424.3, 660.8 422.7, 661.0 421.0 C 661.2 419.3, 660.8 417.7, 661.0 416.0 C 661.2 414.3, 661.8 412.7, 662.0 411.0 C 662.2 409.3, 662.0 407.7, 662.0 406.0 C 662.0 404.3, 662.0 402.7, 662.0 401.0 C 662.0 399.3, 662.2 397.7, 662.0 396.0 C 661.8 394.3, 661.2 392.7, 661.0 391.0 C 660.8 389.3, 661.3 387.7, 661.0 386.0 C 660.7 384.3, 659.5 382.7, 659.0 381.0 C 658.5 379.3, 658.3 377.7, 658.0 376.0 C 657.7 374.3, 657.5 372.7, 657.0 371.0 C 656.5 369.3, 655.5 367.7, 655.0 366.0 C 654.5 364.3, 654.7 362.7, 654.0 361.0 C 653.3 359.3, 652.2 357.3, 651.0 356.0 C 649.8 354.7, 647.8 352.7, 647.0 353.0 C 646.2 353.3, 646.2 356.3, 646.0 358.0 C 645.8 359.7, 646.2 361.3, 646.0 363.0 C 645.8 364.7, 645.2 366.3, 645.0 368.0 C 644.8 369.7, 645.2 371.3, 645.0 373.0 C 644.8 374.7, 644.3 376.2, 644.0 378.0 C 643.7 379.8, 643.3 382.2, 643.0 384.0 C 642.7 385.8, 642.3 387.3, 642.0 389.0 C 641.7 390.7, 641.5 392.3, 641.0 394.0 C 640.5 395.7, 639.5 397.3, 639.0 399.0 C 638.5 400.7, 638.5 402.3, 638.0 404.0 C 637.5 405.7, 636.5 407.3, 636.0 409.0 C 635.5 410.7, 635.5 412.3, 635.0 414.0 C 634.5 415.7, 633.7 417.3, 633.0 419.0 C 632.3 420.7, 631.8 422.3, 631.0 424.0 C 630.2 425.7, 629.0 427.3, 628.0 429.0 C 627.0 430.7, 626.0 432.3, 625.0 434.0 C 624.0 435.7, 623.0 437.3, 622.0 439.0 C 621.0 440.7, 620.2 442.3, 619.0 444.0 C 617.8 445.7, 616.5 447.3, 615.0 449.0 C 613.5 450.7, 611.7 452.5, 610.0 454.0 C 608.3 455.5, 606.7 456.7, 605.0 458.0 C 603.3 459.3, 601.7 460.8, 600.0 462.0 C 598.3 463.2, 596.7 464.2, 595.0 465.0 C 593.3 465.8, 591.7 466.5, 590.0 467.0 C 588.3 467.5, 586.7 467.7, 585.0 468.0 C 583.3 468.3, 581.7 468.7, 580.0 469.0 C 578.3 469.3, 576.7 470.0, 575.0 470.0 C 573.3 470.0, 571.7 469.3, 570.0 469.0 C 568.3 468.7, 566.7 468.3, 565.0 468.0 C 563.3 467.7, 561.7 467.7, 560.0 467.0 C 558.3 466.3, 556.7 465.0, 555.0 464.0 C 553.3 463.0, 551.7 462.3, 550.0 461.0 C 548.3 459.7, 546.5 457.7, 545.0 456.0 C 543.5 454.3, 542.3 452.7, 541.0 451.0 C 539.7 449.3, 538.2 447.7, 537.0 446.0 C 535.8 444.3, 534.8 442.8, 534.0 441.0 C 533.2 439.2, 532.7 436.8, 532.0 435.0 C 531.3 433.2, 530.5 431.7, 530.0 430.0 C 529.5 428.3, 529.3 426.7, 529.0 425.0 C 528.7 423.3, 528.3 421.7, 528.0 420.0 C 527.7 418.3, 527.2 416.7, 527.0 415.0 C 526.8 413.3, 527.2 411.7, 527.0 410.0 C 526.8 408.3, 526.2 406.7, 526.0 405.0 C 525.8 403.3, 526.2 401.7, 526.0 400.0 C 525.8 398.3, 525.2 396.7, 525.0 395.0 C 524.8 393.3, 525.0 391.7, 525.0 390.0 C 525.0 388.3, 525.0 386.7, 525.0 385.0 C 525.0 383.3, 525.0 381.7, 525.0 380.0 C 525.0 378.3, 525.0 376.7, 525.0 375.0 C 525.0 373.3, 525.0 371.7, 525.0 370.0 C 525.0 368.3, 525.0 366.7, 525.0 365.0 C 525.0 363.3, 525.0 361.7, 525.0 360.0 C 525.0 358.3, 524.8 356.7, 525.0 355.0 C 525.2 353.3, 525.8 351.7, 526.0 350.0 C 526.2 348.3, 526.0 346.7, 526.0 345.0 C 526.0 343.3, 526.0 341.7, 526.0 340.0 C 526.0 338.3, 526.0 336.7, 526.0 335.0 C 526.0 333.3, 526.0 331.7, 526.0 330.0 C 526.0 328.3, 526.0 326.7, 526.0 325.0 C 526.0 323.3, 526.0 321.7, 526.0 320.0 C 526.0 318.3, 526.2 316.7, 526.0 315.0 C 525.8 313.3, 525.3 311.7, 525.0 310.0 C 524.7 308.3, 524.3 306.7, 524.0 305.0 C 523.7 303.3, 523.7 301.7, 523.0 300.0 C 522.3 298.3, 521.3 296.5, 520.0 295.0 C 518.7 293.5, 516.8 291.7, 515.0 291.0 C 513.2 290.3, 510.2 291.0, 509.0 291.0 C 507.8 291.0, 508.7 290.2, 508.0 291.0 Z M 947.0 289.0 C 946.0 289.3, 943.7 290.3, 942.0 291.0 C 940.3 291.7, 938.7 292.2, 937.0 293.0 C 935.3 293.8, 933.7 295.2, 932.0 296.0 C 930.3 296.8, 928.7 297.2, 927.0 298.0 C 925.3 298.8, 923.7 300.0, 922.0 301.0 C 920.3 302.0, 918.7 303.0, 917.0 304.0 C 915.3 305.0, 913.7 305.8, 912.0 307.0 C 910.3 308.2, 908.7 309.8, 907.0 311.0 C 905.3 312.2, 903.7 312.8, 902.0 314.0 C 900.3 315.2, 898.7 316.7, 897.0 318.0 C 895.3 319.3, 893.7 320.5, 892.0 322.0 C 890.3 323.5, 888.7 325.5, 887.0 327.0 C 885.3 328.5, 883.7 329.5, 882.0 331.0 C 880.3 332.5, 878.5 334.3, 877.0 336.0 C 875.5 337.7, 874.5 339.3, 873.0 341.0 C 871.5 342.7, 869.5 344.3, 868.0 346.0 C 866.5 347.7, 865.3 349.3, 864.0 351.0 C 862.7 352.7, 861.3 354.3, 860.0 356.0 C 858.7 357.7, 857.3 359.3, 856.0 361.0 C 854.7 362.7, 853.2 364.3, 852.0 366.0 C 850.8 367.7, 850.0 369.3, 849.0 371.0 C 848.0 372.7, 847.2 374.3, 846.0 376.0 C 844.8 377.7, 843.2 379.3, 842.0 381.0 C 840.8 382.7, 840.0 384.3, 839.0 386.0 C 838.0 387.7, 836.8 389.3, 836.0 391.0 C 835.2 392.7, 834.8 394.3, 834.0 396.0 C 833.2 397.7, 831.8 399.3, 831.0 401.0 C 830.2 402.7, 829.8 404.3, 829.0 406.0 C 828.2 407.7, 826.8 409.3, 826.0 411.0 C 825.2 412.7, 824.7 414.3, 824.0 416.0 C 823.3 417.7, 822.7 419.3, 822.0 421.0 C 821.3 422.7, 820.7 424.3, 820.0 426.0 C 819.3 427.7, 818.7 429.3, 818.0 431.0 C 817.3 432.7, 816.7 434.3, 816.0 436.0 C 815.3 437.7, 814.7 439.3, 814.0 441.0 C 813.3 442.7, 812.7 444.3, 812.0 446.0 C 811.3 447.7, 810.5 449.3, 810.0 451.0 C 809.5 452.7, 809.5 454.3, 809.0 456.0 C 808.5 457.7, 807.5 459.3, 807.0 461.0 C 806.5 462.7, 806.5 464.3, 806.0 466.0 C 805.5 467.7, 804.5 469.3, 804.0 471.0 C 803.5 472.7, 803.5 474.3, 803.0 476.0 C 802.5 477.7, 801.5 479.3, 801.0 481.0 C 800.5 482.7, 800.3 484.3, 800.0 486.0 C 799.7 487.7, 799.5 489.3, 799.0 491.0 C 798.5 492.7, 797.5 494.3, 797.0 496.0 C 796.5 497.7, 796.5 499.3, 796.0 501.0 C 795.5 502.7, 794.5 504.3, 794.0 506.0 C 793.5 507.7, 793.5 509.3, 793.0 511.0 C 792.5 512.7, 791.5 514.3, 791.0 516.0 C 790.5 517.7, 790.5 519.3, 790.0 521.0 C 789.5 522.7, 788.7 524.3, 788.0 526.0 C 787.3 527.7, 786.7 529.3, 786.0 531.0 C 785.3 532.7, 784.7 534.3, 784.0 536.0 C 783.3 537.7, 782.7 539.3, 782.0 541.0 C 781.3 542.7, 780.8 544.3, 780.0 546.0 C 779.2 547.7, 777.8 549.3, 777.0 551.0 C 776.2 552.7, 775.7 554.3, 775.0 556.0 C 774.3 557.7, 773.8 559.3, 773.0 561.0 C 772.2 562.7, 771.0 564.3, 770.0 566.0 C 769.0 567.7, 768.0 569.3, 767.0 571.0 C 766.0 572.7, 765.0 574.3, 764.0 576.0 C 763.0 577.7, 762.2 579.3, 761.0 581.0 C 759.8 582.7, 758.2 584.3, 757.0 586.0 C 755.8 587.7, 755.2 589.3, 754.0 591.0 C 752.8 592.7, 751.3 594.3, 750.0 596.0 C 748.7 597.7, 747.3 599.3, 746.0 601.0 C 744.7 602.7, 743.5 604.3, 742.0 606.0 C 740.5 607.7, 738.7 609.3, 737.0 611.0 C 735.3 612.7, 733.7 614.3, 732.0 616.0 C 730.3 617.7, 728.7 619.3, 727.0 621.0 C 725.3 622.7, 723.7 624.5, 722.0 626.0 C 720.3 627.5, 718.7 628.7, 717.0 630.0 C 715.3 631.3, 713.7 632.7, 712.0 634.0 C 710.3 635.3, 708.7 636.7, 707.0 638.0 C 705.3 639.3, 703.7 640.7, 702.0 642.0 C 700.3 643.3, 698.7 644.7, 697.0 646.0 C 695.3 647.3, 693.7 648.8, 692.0 650.0 C 690.3 651.2, 688.7 651.8, 687.0 653.0 C 685.3 654.2, 683.7 655.8, 682.0 657.0 C 680.3 658.2, 678.7 658.8, 677.0 660.0 C 675.3 661.2, 673.7 662.8, 672.0 664.0 C 670.3 665.2, 668.7 665.8, 667.0 667.0 C 665.3 668.2, 663.7 669.8, 662.0 671.0 C 660.3 672.2, 658.7 672.8, 657.0 674.0 C 655.3 675.2, 653.7 676.8, 652.0 678.0 C 650.3 679.2, 648.7 680.0, 647.0 681.0 C 645.3 682.0, 643.7 682.8, 642.0 684.0 C 640.3 685.2, 638.7 686.8, 637.0 688.0 C 635.3 689.2, 633.7 689.8, 632.0 691.0 C 630.3 692.2, 628.7 693.8, 627.0 695.0 C 625.3 696.2, 623.7 696.8, 622.0 698.0 C 620.3 699.2, 618.7 700.8, 617.0 702.0 C 615.3 703.2, 613.7 703.8, 612.0 705.0 C 610.3 706.2, 608.7 707.7, 607.0 709.0 C 605.3 710.3, 603.7 711.8, 602.0 713.0 C 600.3 714.2, 598.7 714.8, 597.0 716.0 C 595.3 717.2, 593.7 718.7, 592.0 720.0 C 590.3 721.3, 588.7 722.7, 587.0 724.0 C 585.3 725.3, 583.7 726.7, 582.0 728.0 C 580.3 729.3, 578.7 730.5, 577.0 732.0 C 575.3 733.5, 573.7 735.5, 572.0 737.0 C 570.3 738.5, 568.7 739.7, 567.0 741.0 C 565.3 742.3, 563.7 743.5, 562.0 745.0 C 560.3 746.5, 558.7 748.3, 557.0 750.0 C 555.3 751.7, 553.7 753.3, 552.0 755.0 C 550.3 756.7, 548.7 758.3, 547.0 760.0 C 545.3 761.7, 543.7 763.3, 542.0 765.0 C 540.3 766.7, 538.7 768.2, 537.0 770.0 C 535.3 771.8, 533.5 774.2, 532.0 776.0 C 530.5 777.8, 529.5 779.3, 528.0 781.0 C 526.5 782.7, 524.5 784.3, 523.0 786.0 C 521.5 787.7, 520.2 789.3, 519.0 791.0 C 517.8 792.7, 517.2 794.3, 516.0 796.0 C 514.8 797.7, 513.2 799.3, 512.0 801.0 C 510.8 802.7, 510.2 804.3, 509.0 806.0 C 507.8 807.7, 506.2 809.3, 505.0 811.0 C 503.8 812.7, 503.0 814.3, 502.0 816.0 C 501.0 817.7, 500.0 819.3, 499.0 821.0 C 498.0 822.7, 497.0 824.3, 496.0 826.0 C 495.0 827.7, 494.0 829.3, 493.0 831.0 C 492.0 832.7, 490.8 834.3, 490.0 836.0 C 489.2 837.7, 488.8 839.3, 488.0 841.0 C 487.2 842.7, 485.8 844.3, 485.0 846.0 C 484.2 847.7, 483.7 849.3, 483.0 851.0 C 482.3 852.7, 481.7 854.3, 481.0 856.0 C 480.3 857.7, 479.8 859.3, 479.0 861.0 C 478.2 862.7, 476.8 864.3, 476.0 866.0 C 475.2 867.7, 474.5 869.3, 474.0 871.0 C 473.5 872.7, 473.5 874.3, 473.0 876.0 C 472.5 877.7, 471.7 879.3, 471.0 881.0 C 470.3 882.7, 469.5 884.3, 469.0 886.0 C 468.5 887.7, 468.3 889.3, 468.0 891.0 C 467.7 892.7, 467.5 894.3, 467.0 896.0 C 466.5 897.7, 465.5 899.3, 465.0 901.0 C 464.5 902.7, 464.3 904.3, 464.0 906.0 C 463.7 907.7, 463.3 909.3, 463.0 911.0 C 462.7 912.7, 462.3 914.3, 462.0 916.0 C 461.7 917.7, 461.3 919.3, 461.0 921.0 C 460.7 922.7, 460.3 924.3, 460.0 926.0 C 459.7 927.7, 459.2 929.3, 459.0 931.0 C 458.8 932.7, 459.2 934.3, 459.0 936.0 C 458.8 937.7, 458.3 939.3, 458.0 941.0 C 457.7 942.7, 457.2 944.3, 457.0 946.0 C 456.8 947.7, 457.0 949.3, 457.0 951.0 C 457.0 952.7, 457.2 954.3, 457.0 956.0 C 456.8 957.7, 456.2 959.3, 456.0 961.0 C 455.8 962.7, 456.0 964.3, 456.0 966.0 C 456.0 967.7, 456.0 969.3, 456.0 971.0 C 456.0 972.7, 456.0 974.3, 456.0 976.0 C 456.0 977.7, 456.0 979.3, 456.0 981.0 C 456.0 982.7, 456.0 984.3, 456.0 986.0 C 456.0 987.7, 456.0 989.3, 456.0 991.0 C 456.0 992.7, 456.0 994.3, 456.0 996.0 C 456.0 997.7, 456.0 999.3, 456.0 1001.0 C 456.0 1002.7, 456.0 1004.3, 456.0 1006.0 C 456.0 1007.7, 456.0 1009.3, 456.0 1011.0 C 456.0 1012.7, 456.2 1014.3, 456.0 1016.0 C 455.8 1017.7, 455.2 1019.3, 455.0 1021.0 C 454.8 1022.7, 455.3 1024.3, 455.0 1026.0 C 454.7 1027.7, 453.5 1029.3, 453.0 1031.0 C 452.5 1032.7, 452.7 1034.3, 452.0 1036.0 C 451.3 1037.7, 450.0 1039.3, 449.0 1041.0 C 448.0 1042.7, 447.3 1044.3, 446.0 1046.0 C 444.7 1047.7, 442.7 1049.7, 441.0 1051.0 C 439.3 1052.3, 437.7 1053.0, 436.0 1054.0 C 434.3 1055.0, 432.7 1056.3, 431.0 1057.0 C 429.3 1057.7, 427.7 1057.7, 426.0 1058.0 C 424.3 1058.3, 422.7 1058.7, 421.0 1059.0 C 419.3 1059.3, 417.7 1059.8, 416.0 1060.0 C 414.3 1060.2, 412.7 1059.8, 411.0 1060.0 C 409.3 1060.2, 407.7 1060.8, 406.0 1061.0 C 404.3 1061.2, 402.7 1060.8, 401.0 1061.0 C 399.3 1061.2, 397.7 1061.7, 396.0 1062.0 C 394.3 1062.3, 392.7 1062.7, 391.0 1063.0 C 389.3 1063.3, 387.7 1063.5, 386.0 1064.0 C 384.3 1064.5, 382.7 1065.5, 381.0 1066.0 C 379.3 1066.5, 377.7 1066.5, 376.0 1067.0 C 374.3 1067.5, 372.7 1068.3, 371.0 1069.0 C 369.3 1069.7, 367.7 1070.3, 366.0 1071.0 C 364.3 1071.7, 362.7 1072.2, 361.0 1073.0 C 359.3 1073.8, 357.7 1075.0, 356.0 1076.0 C 354.3 1077.0, 352.7 1078.0, 351.0 1079.0 C 349.3 1080.0, 347.7 1081.0, 346.0 1082.0 C 344.3 1083.0, 342.7 1083.7, 341.0 1085.0 C 339.3 1086.3, 337.7 1088.5, 336.0 1090.0 C 334.3 1091.5, 332.7 1092.5, 331.0 1094.0 C 329.3 1095.5, 327.5 1097.3, 326.0 1099.0 C 324.5 1100.7, 323.3 1102.3, 322.0 1104.0 C 320.7 1105.7, 319.3 1107.3, 318.0 1109.0 C 316.7 1110.7, 315.2 1112.3, 314.0 1114.0 C 312.8 1115.7, 311.8 1117.3, 311.0 1119.0 C 310.2 1120.7, 309.7 1122.3, 309.0 1124.0 C 308.3 1125.7, 307.7 1127.3, 307.0 1129.0 C 306.3 1130.7, 305.7 1132.3, 305.0 1134.0 C 304.3 1135.7, 303.7 1137.3, 303.0 1139.0 C 302.3 1140.7, 301.5 1142.3, 301.0 1144.0 C 300.5 1145.7, 300.3 1147.3, 300.0 1149.0 C 299.7 1150.7, 299.3 1152.3, 299.0 1154.0 C 298.7 1155.7, 298.3 1157.3, 298.0 1159.0 C 297.7 1160.7, 297.2 1162.3, 297.0 1164.0 C 296.8 1165.7, 297.0 1167.3, 297.0 1169.0 C 297.0 1170.7, 297.0 1172.3, 297.0 1174.0 C 297.0 1175.7, 297.0 1177.3, 297.0 1179.0 C 297.0 1180.7, 297.0 1182.3, 297.0 1184.0 C 297.0 1185.7, 297.0 1187.3, 297.0 1189.0 C 297.0 1190.7, 297.0 1192.3, 297.0 1194.0 C 297.0 1195.7, 297.0 1197.3, 297.0 1199.0 C 297.0 1200.7, 296.3 1202.3, 297.0 1204.0 C 297.7 1205.7, 299.5 1208.0, 301.0 1209.0 C 302.5 1210.0, 304.3 1209.8, 306.0 1210.0 C 307.7 1210.2, 309.3 1210.0, 311.0 1210.0 C 312.7 1210.0, 314.3 1210.0, 316.0 1210.0 C 317.7 1210.0, 319.3 1210.0, 321.0 1210.0 C 322.7 1210.0, 324.3 1210.0, 326.0 1210.0 C 327.7 1210.0, 329.3 1210.0, 331.0 1210.0 C 332.7 1210.0, 334.3 1210.0, 336.0 1210.0 C 337.7 1210.0, 339.2 1210.0, 341.0 1210.0 C 342.8 1210.0, 345.2 1210.0, 347.0 1210.0 C 348.8 1210.0, 350.3 1210.0, 352.0 1210.0 C 353.7 1210.0, 355.3 1210.0, 357.0 1210.0 C 358.7 1210.0, 360.3 1210.0, 362.0 1210.0 C 363.7 1210.0, 365.3 1210.0, 367.0 1210.0 C 368.7 1210.0, 370.3 1210.0, 372.0 1210.0 C 373.7 1210.0, 375.3 1210.0, 377.0 1210.0 C 378.7 1210.0, 380.3 1210.0, 382.0 1210.0 C 383.7 1210.0, 385.3 1210.0, 387.0 1210.0 C 388.7 1210.0, 390.3 1210.0, 392.0 1210.0 C 393.7 1210.0, 395.3 1210.0, 397.0 1210.0 C 398.7 1210.0, 400.3 1210.0, 402.0 1210.0 C 403.7 1210.0, 405.3 1210.0, 407.0 1210.0 C 408.7 1210.0, 410.3 1210.0, 412.0 1210.0 C 413.7 1210.0, 415.3 1210.0, 417.0 1210.0 C 418.7 1210.0, 420.3 1210.0, 422.0 1210.0 C 423.7 1210.0, 425.3 1210.0, 427.0 1210.0 C 428.7 1210.0, 430.3 1210.0, 432.0 1210.0 C 433.7 1210.0, 435.3 1210.0, 437.0 1210.0 C 438.7 1210.0, 440.3 1210.0, 442.0 1210.0 C 443.7 1210.0, 445.3 1210.0, 447.0 1210.0 C 448.7 1210.0, 450.3 1210.0, 452.0 1210.0 C 453.7 1210.0, 455.3 1210.0, 457.0 1210.0 C 458.7 1210.0, 460.3 1210.0, 462.0 1210.0 C 463.7 1210.0, 465.3 1210.0, 467.0 1210.0 C 468.7 1210.0, 470.3 1210.0, 472.0 1210.0 C 473.7 1210.0, 475.3 1210.0, 477.0 1210.0 C 478.7 1210.0, 480.3 1210.0, 482.0 1210.0 C 483.7 1210.0, 485.3 1210.0, 487.0 1210.0 C 488.7 1210.0, 490.3 1210.0, 492.0 1210.0 C 493.7 1210.0, 495.3 1210.0, 497.0 1210.0 C 498.7 1210.0, 500.3 1210.0, 502.0 1210.0 C 503.7 1210.0, 505.3 1210.2, 507.0 1210.0 C 508.7 1209.8, 510.3 1209.2, 512.0 1209.0 C 513.7 1208.8, 515.3 1209.2, 517.0 1209.0 C 518.7 1208.8, 520.3 1208.2, 522.0 1208.0 C 523.7 1207.8, 525.3 1208.2, 527.0 1208.0 C 528.7 1207.8, 530.3 1207.3, 532.0 1207.0 C 533.7 1206.7, 535.3 1206.3, 537.0 1206.0 C 538.7 1205.7, 540.3 1205.3, 542.0 1205.0 C 543.7 1204.7, 545.3 1204.3, 547.0 1204.0 C 548.7 1203.7, 550.3 1203.3, 552.0 1203.0 C 553.7 1202.7, 555.3 1202.3, 557.0 1202.0 C 558.7 1201.7, 560.3 1201.5, 562.0 1201.0 C 563.7 1200.5, 565.3 1199.5, 567.0 1199.0 C 568.7 1198.5, 570.3 1198.5, 572.0 1198.0 C 573.7 1197.5, 575.3 1196.7, 577.0 1196.0 C 578.7 1195.3, 580.3 1194.7, 582.0 1194.0 C 583.7 1193.3, 585.3 1192.7, 587.0 1192.0 C 588.7 1191.3, 590.3 1190.7, 592.0 1190.0 C 593.7 1189.3, 595.3 1188.7, 597.0 1188.0 C 598.7 1187.3, 600.3 1186.8, 602.0 1186.0 C 603.7 1185.2, 605.3 1184.0, 607.0 1183.0 C 608.7 1182.0, 610.3 1180.8, 612.0 1180.0 C 613.7 1179.2, 615.3 1178.8, 617.0 1178.0 C 618.7 1177.2, 620.3 1176.0, 622.0 1175.0 C 623.7 1174.0, 625.3 1173.0, 627.0 1172.0 C 628.7 1171.0, 630.3 1170.2, 632.0 1169.0 C 633.7 1167.8, 635.3 1166.2, 637.0 1165.0 C 638.7 1163.8, 640.3 1163.2, 642.0 1162.0 C 643.7 1160.8, 645.3 1159.3, 647.0 1158.0 C 648.7 1156.7, 650.3 1155.3, 652.0 1154.0 C 653.7 1152.7, 655.3 1151.5, 657.0 1150.0 C 658.7 1148.5, 660.3 1146.7, 662.0 1145.0 C 663.7 1143.3, 665.3 1141.7, 667.0 1140.0 C 668.7 1138.3, 670.3 1136.7, 672.0 1135.0 C 673.7 1133.3, 675.5 1131.7, 677.0 1130.0 C 678.5 1128.3, 679.5 1126.7, 681.0 1125.0 C 682.5 1123.3, 684.5 1121.7, 686.0 1120.0 C 687.5 1118.3, 688.8 1116.7, 690.0 1115.0 C 691.2 1113.3, 691.8 1111.7, 693.0 1110.0 C 694.2 1108.3, 695.8 1106.7, 697.0 1105.0 C 698.2 1103.3, 698.8 1101.7, 700.0 1100.0 C 701.2 1098.3, 702.8 1096.7, 704.0 1095.0 C 705.2 1093.3, 706.0 1091.7, 707.0 1090.0 C 708.0 1088.3, 709.2 1086.7, 710.0 1085.0 C 710.8 1083.3, 711.2 1081.7, 712.0 1080.0 C 712.8 1078.3, 714.2 1076.7, 715.0 1075.0 C 715.8 1073.3, 716.2 1071.7, 717.0 1070.0 C 717.8 1068.3, 719.2 1066.7, 720.0 1065.0 C 720.8 1063.3, 721.3 1061.7, 722.0 1060.0 C 722.7 1058.3, 723.3 1056.7, 724.0 1055.0 C 724.7 1053.3, 725.3 1051.7, 726.0 1050.0 C 726.7 1048.3, 727.5 1046.7, 728.0 1045.0 C 728.5 1043.3, 728.5 1041.7, 729.0 1040.0 C 729.5 1038.3, 730.5 1036.7, 731.0 1035.0 C 731.5 1033.3, 731.7 1031.7, 732.0 1030.0 C 732.3 1028.3, 732.7 1026.7, 733.0 1025.0 C 733.3 1023.3, 733.7 1021.7, 734.0 1020.0 C 734.3 1018.3, 734.7 1016.7, 735.0 1015.0 C 735.3 1013.3, 735.7 1011.7, 736.0 1010.0 C 736.3 1008.3, 736.7 1006.7, 737.0 1005.0 C 737.3 1003.3, 737.8 1001.7, 738.0 1000.0 C 738.2 998.3, 737.8 996.7, 738.0 995.0 C 738.2 993.3, 738.8 991.7, 739.0 990.0 C 739.2 988.3, 739.0 986.7, 739.0 985.0 C 739.0 983.3, 739.2 981.7, 739.0 980.0 C 738.8 978.3, 738.2 976.7, 738.0 975.0 C 737.8 973.3, 738.2 971.7, 738.0 970.0 C 737.8 968.3, 737.3 966.7, 737.0 965.0 C 736.7 963.3, 736.3 961.7, 736.0 960.0 C 735.7 958.3, 735.5 956.7, 735.0 955.0 C 734.5 953.3, 733.7 951.7, 733.0 950.0 C 732.3 948.3, 731.7 946.7, 731.0 945.0 C 730.3 943.3, 729.8 941.7, 729.0 940.0 C 728.2 938.3, 727.0 936.7, 726.0 935.0 C 725.0 933.3, 724.2 931.7, 723.0 930.0 C 721.8 928.3, 720.5 926.7, 719.0 925.0 C 717.5 923.3, 715.7 921.7, 714.0 920.0 C 712.3 918.3, 710.8 916.7, 709.0 915.0 C 707.2 913.3, 704.5 910.5, 703.0 910.0 C 701.5 909.5, 700.5 910.8, 700.0 912.0 C 699.5 913.2, 699.8 915.3, 700.0 917.0 C 700.2 918.7, 700.8 920.3, 701.0 922.0 C 701.2 923.7, 700.8 925.3, 701.0 927.0 C 701.2 928.7, 701.8 930.3, 702.0 932.0 C 702.2 933.7, 702.0 935.3, 702.0 937.0 C 702.0 938.7, 701.8 940.3, 702.0 942.0 C 702.2 943.7, 703.0 945.3, 703.0 947.0 C 703.0 948.7, 702.2 950.3, 702.0 952.0 C 701.8 953.7, 702.0 955.3, 702.0 957.0 C 702.0 958.7, 702.0 960.3, 702.0 962.0 C 702.0 963.7, 702.0 965.3, 702.0 967.0 C 702.0 968.7, 702.2 970.3, 702.0 972.0 C 701.8 973.7, 701.2 975.3, 701.0 977.0 C 700.8 978.7, 701.2 980.3, 701.0 982.0 C 700.8 983.7, 700.2 985.3, 700.0 987.0 C 699.8 988.7, 700.2 990.3, 700.0 992.0 C 699.8 993.7, 699.3 995.3, 699.0 997.0 C 698.7 998.7, 698.3 1000.3, 698.0 1002.0 C 697.7 1003.7, 697.3 1005.3, 697.0 1007.0 C 696.7 1008.7, 696.5 1010.3, 696.0 1012.0 C 695.5 1013.7, 694.5 1015.3, 694.0 1017.0 C 693.5 1018.7, 693.3 1020.3, 693.0 1022.0 C 692.7 1023.7, 692.5 1025.3, 692.0 1027.0 C 691.5 1028.7, 690.7 1030.3, 690.0 1032.0 C 689.3 1033.7, 688.7 1035.3, 688.0 1037.0 C 687.3 1038.7, 686.7 1040.3, 686.0 1042.0 C 685.3 1043.7, 684.8 1045.3, 684.0 1047.0 C 683.2 1048.7, 681.8 1050.3, 681.0 1052.0 C 680.2 1053.7, 679.8 1055.3, 679.0 1057.0 C 678.2 1058.7, 676.8 1060.3, 676.0 1062.0 C 675.2 1063.7, 674.8 1065.3, 674.0 1067.0 C 673.2 1068.7, 672.2 1070.3, 671.0 1072.0 C 669.8 1073.7, 668.2 1075.3, 667.0 1077.0 C 665.8 1078.7, 665.2 1080.3, 664.0 1082.0 C 662.8 1083.7, 661.3 1085.3, 660.0 1087.0 C 658.7 1088.7, 657.3 1090.3, 656.0 1092.0 C 654.7 1093.7, 653.3 1095.3, 652.0 1097.0 C 650.7 1098.7, 649.5 1100.3, 648.0 1102.0 C 646.5 1103.7, 644.7 1105.3, 643.0 1107.0 C 641.3 1108.7, 639.7 1110.3, 638.0 1112.0 C 636.3 1113.7, 634.7 1115.5, 633.0 1117.0 C 631.3 1118.5, 629.7 1119.7, 628.0 1121.0 C 626.3 1122.3, 624.7 1123.7, 623.0 1125.0 C 621.3 1126.3, 619.7 1127.8, 618.0 1129.0 C 616.3 1130.2, 614.7 1130.8, 613.0 1132.0 C 611.3 1133.2, 609.7 1134.8, 608.0 1136.0 C 606.3 1137.2, 604.7 1138.0, 603.0 1139.0 C 601.3 1140.0, 599.7 1141.0, 598.0 1142.0 C 596.3 1143.0, 594.7 1144.0, 593.0 1145.0 C 591.3 1146.0, 589.7 1147.2, 588.0 1148.0 C 586.3 1148.8, 584.7 1149.3, 583.0 1150.0 C 581.3 1150.7, 579.7 1151.2, 578.0 1152.0 C 576.3 1152.8, 574.7 1154.2, 573.0 1155.0 C 571.3 1155.8, 569.7 1156.5, 568.0 1157.0 C 566.3 1157.5, 564.7 1157.5, 563.0 1158.0 C 561.3 1158.5, 559.7 1159.3, 558.0 1160.0 C 556.3 1160.7, 554.7 1161.5, 553.0 1162.0 C 551.3 1162.5, 549.7 1162.7, 548.0 1163.0 C 546.3 1163.3, 544.7 1163.7, 543.0 1164.0 C 541.3 1164.3, 539.7 1164.7, 538.0 1165.0 C 536.3 1165.3, 534.7 1165.7, 533.0 1166.0 C 531.3 1166.3, 529.7 1166.7, 528.0 1167.0 C 526.3 1167.3, 524.7 1167.7, 523.0 1168.0 C 521.3 1168.3, 519.7 1168.8, 518.0 1169.0 C 516.3 1169.2, 514.7 1168.8, 513.0 1169.0 C 511.3 1169.2, 509.7 1169.8, 508.0 1170.0 C 506.3 1170.2, 504.7 1170.0, 503.0 1170.0 C 501.3 1170.0, 499.7 1169.8, 498.0 1170.0 C 496.3 1170.2, 494.7 1170.8, 493.0 1171.0 C 491.3 1171.2, 489.7 1171.0, 488.0 1171.0 C 486.3 1171.0, 484.7 1171.0, 483.0 1171.0 C 481.3 1171.0, 479.7 1171.0, 478.0 1171.0 C 476.3 1171.0, 474.7 1171.0, 473.0 1171.0 C 471.3 1171.0, 469.7 1171.0, 468.0 1171.0 C 466.3 1171.0, 464.7 1171.0, 463.0 1171.0 C 461.3 1171.0, 459.7 1171.0, 458.0 1171.0 C 456.3 1171.0, 454.7 1171.0, 453.0 1171.0 C 451.3 1171.0, 449.7 1171.0, 448.0 1171.0 C 446.3 1171.0, 444.7 1171.0, 443.0 1171.0 C 441.3 1171.0, 439.7 1171.0, 438.0 1171.0 C 436.3 1171.0, 434.7 1171.0, 433.0 1171.0 C 431.3 1171.0, 429.7 1171.0, 428.0 1171.0 C 426.3 1171.0, 424.7 1171.0, 423.0 1171.0 C 421.3 1171.0, 419.7 1171.0, 418.0 1171.0 C 416.3 1171.0, 414.7 1171.0, 413.0 1171.0 C 411.3 1171.0, 409.7 1171.0, 408.0 1171.0 C 406.3 1171.0, 404.7 1171.0, 403.0 1171.0 C 401.3 1171.0, 399.7 1171.0, 398.0 1171.0 C 396.3 1171.0, 394.7 1171.0, 393.0 1171.0 C 391.3 1171.0, 389.7 1171.0, 388.0 1171.0 C 386.3 1171.0, 384.7 1171.0, 383.0 1171.0 C 381.3 1171.0, 379.7 1171.0, 378.0 1171.0 C 376.3 1171.0, 374.7 1171.0, 373.0 1171.0 C 371.3 1171.0, 369.7 1171.0, 368.0 1171.0 C 366.3 1171.0, 364.7 1171.0, 363.0 1171.0 C 361.3 1171.0, 359.7 1171.0, 358.0 1171.0 C 356.3 1171.0, 354.7 1171.0, 353.0 1171.0 C 351.3 1171.0, 349.7 1171.0, 348.0 1171.0 C 346.3 1171.0, 344.7 1171.3, 343.0 1171.0 C 341.3 1170.7, 338.8 1170.2, 338.0 1169.0 C 337.2 1167.8, 338.0 1165.7, 338.0 1164.0 C 338.0 1162.3, 337.7 1160.7, 338.0 1159.0 C 338.3 1157.3, 339.5 1155.7, 340.0 1154.0 C 340.5 1152.3, 340.3 1150.7, 341.0 1149.0 C 341.7 1147.3, 343.2 1145.7, 344.0 1144.0 C 344.8 1142.3, 345.2 1140.7, 346.0 1139.0 C 346.8 1137.3, 347.7 1135.8, 349.0 1134.0 C 350.3 1132.2, 352.5 1129.8, 354.0 1128.0 C 355.5 1126.2, 356.5 1124.7, 358.0 1123.0 C 359.5 1121.3, 361.3 1119.3, 363.0 1118.0 C 364.7 1116.7, 366.3 1116.0, 368.0 1115.0 C 369.7 1114.0, 371.3 1113.0, 373.0 1112.0 C 374.7 1111.0, 376.3 1109.8, 378.0 1109.0 C 379.7 1108.2, 381.3 1107.7, 383.0 1107.0 C 384.7 1106.3, 386.3 1105.7, 388.0 1105.0 C 389.7 1104.3, 391.3 1103.5, 393.0 1103.0 C 394.7 1102.5, 396.3 1102.3, 398.0 1102.0 C 399.7 1101.7, 401.3 1101.3, 403.0 1101.0 C 404.7 1100.7, 406.3 1100.2, 408.0 1100.0 C 409.7 1099.8, 411.3 1100.2, 413.0 1100.0 C 414.7 1099.8, 416.3 1099.2, 418.0 1099.0 C 419.7 1098.8, 421.3 1099.2, 423.0 1099.0 C 424.7 1098.8, 426.3 1098.3, 428.0 1098.0 C 429.7 1097.7, 431.3 1097.3, 433.0 1097.0 C 434.7 1096.7, 436.3 1096.3, 438.0 1096.0 C 439.7 1095.7, 441.3 1095.5, 443.0 1095.0 C 444.7 1094.5, 446.3 1093.7, 448.0 1093.0 C 449.7 1092.3, 451.3 1091.8, 453.0 1091.0 C 454.7 1090.2, 456.3 1089.0, 458.0 1088.0 C 459.7 1087.0, 461.3 1086.2, 463.0 1085.0 C 464.7 1083.8, 466.5 1082.3, 468.0 1081.0 C 469.5 1079.7, 470.5 1078.5, 472.0 1077.0 C 473.5 1075.5, 475.5 1073.7, 477.0 1072.0 C 478.5 1070.3, 479.8 1068.7, 481.0 1067.0 C 482.2 1065.3, 483.2 1063.7, 484.0 1062.0 C 484.8 1060.3, 485.2 1058.7, 486.0 1057.0 C 486.8 1055.3, 488.2 1053.7, 489.0 1052.0 C 489.8 1050.3, 490.5 1048.7, 491.0 1047.0 C 491.5 1045.3, 491.7 1043.7, 492.0 1042.0 C 492.3 1040.3, 492.7 1038.7, 493.0 1037.0 C 493.3 1035.3, 493.7 1033.7, 494.0 1032.0 C 494.3 1030.3, 494.8 1028.7, 495.0 1027.0 C 495.2 1025.3, 495.0 1023.7, 495.0 1022.0 C 495.0 1020.3, 495.0 1018.7, 495.0 1017.0 C 495.0 1015.3, 495.0 1013.7, 495.0 1012.0 C 495.0 1010.3, 495.0 1008.7, 495.0 1007.0 C 495.0 1005.3, 495.0 1003.7, 495.0 1002.0 C 495.0 1000.3, 495.0 998.7, 495.0 997.0 C 495.0 995.3, 495.0 993.7, 495.0 992.0 C 495.0 990.3, 495.0 988.7, 495.0 987.0 C 495.0 985.3, 495.0 983.7, 495.0 982.0 C 495.0 980.3, 495.0 978.7, 495.0 977.0 C 495.0 975.3, 495.0 973.7, 495.0 972.0 C 495.0 970.3, 494.8 968.7, 495.0 967.0 C 495.2 965.3, 495.8 963.7, 496.0 962.0 C 496.2 960.3, 495.8 958.7, 496.0 957.0 C 496.2 955.3, 496.8 953.7, 497.0 952.0 C 497.2 950.3, 496.8 948.7, 497.0 947.0 C 497.2 945.3, 497.7 943.7, 498.0 942.0 C 498.3 940.3, 498.8 938.7, 499.0 937.0 C 499.2 935.3, 498.8 933.7, 499.0 932.0 C 499.2 930.3, 499.7 928.7, 500.0 927.0 C 500.3 925.3, 500.7 923.7, 501.0 922.0 C 501.3 920.3, 501.5 918.7, 502.0 917.0 C 502.5 915.3, 503.5 913.7, 504.0 912.0 C 504.5 910.3, 504.5 908.7, 505.0 907.0 C 505.5 905.3, 506.5 903.7, 507.0 902.0 C 507.5 900.3, 507.5 898.7, 508.0 897.0 C 508.5 895.3, 509.3 893.7, 510.0 892.0 C 510.7 890.3, 511.3 888.7, 512.0 887.0 C 512.7 885.3, 513.3 883.7, 514.0 882.0 C 514.7 880.3, 515.3 878.7, 516.0 877.0 C 516.7 875.3, 517.3 873.7, 518.0 872.0 C 518.7 870.3, 519.2 868.7, 520.0 867.0 C 520.8 865.3, 522.2 863.7, 523.0 862.0 C 523.8 860.3, 524.2 858.7, 525.0 857.0 C 525.8 855.3, 527.0 853.7, 528.0 852.0 C 529.0 850.3, 530.0 848.7, 531.0 847.0 C 532.0 845.3, 533.0 843.7, 534.0 842.0 C 535.0 840.3, 536.0 838.7, 537.0 837.0 C 538.0 835.3, 538.8 833.7, 540.0 832.0 C 541.2 830.3, 542.8 828.7, 544.0 827.0 C 545.2 825.3, 545.8 823.7, 547.0 822.0 C 548.2 820.3, 549.7 818.7, 551.0 817.0 C 552.3 815.3, 553.7 813.7, 555.0 812.0 C 556.3 810.3, 557.7 808.7, 559.0 807.0 C 560.3 805.3, 561.5 803.7, 563.0 802.0 C 564.5 800.3, 566.3 798.7, 568.0 797.0 C 569.7 795.3, 571.3 793.7, 573.0 792.0 C 574.7 790.3, 576.3 788.7, 578.0 787.0 C 579.7 785.3, 581.3 783.7, 583.0 782.0 C 584.7 780.3, 586.3 778.5, 588.0 777.0 C 589.7 775.5, 591.3 774.5, 593.0 773.0 C 594.7 771.5, 596.3 769.5, 598.0 768.0 C 599.7 766.5, 601.3 765.3, 603.0 764.0 C 604.7 762.7, 606.3 761.3, 608.0 760.0 C 609.7 758.7, 611.3 757.3, 613.0 756.0 C 614.7 754.7, 616.3 753.3, 618.0 752.0 C 619.7 750.7, 621.3 749.3, 623.0 748.0 C 624.7 746.7, 626.3 745.2, 628.0 744.0 C 629.7 742.8, 631.3 742.2, 633.0 741.0 C 634.7 739.8, 636.3 738.2, 638.0 737.0 C 639.7 735.8, 641.3 735.2, 643.0 734.0 C 644.7 732.8, 646.3 731.2, 648.0 730.0 C 649.7 728.8, 651.3 728.0, 653.0 727.0 C 654.7 726.0, 656.3 725.2, 658.0 724.0 C 659.7 722.8, 661.3 721.2, 663.0 720.0 C 664.7 718.8, 666.3 718.0, 668.0 717.0 C 669.7 716.0, 671.3 715.2, 673.0 714.0 C 674.7 712.8, 676.3 711.2, 678.0 710.0 C 679.7 708.8, 681.3 708.0, 683.0 707.0 C 684.7 706.0, 686.3 705.0, 688.0 704.0 C 689.7 703.0, 691.3 702.2, 693.0 701.0 C 694.7 699.8, 696.3 698.2, 698.0 697.0 C 699.7 695.8, 701.3 695.2, 703.0 694.0 C 704.7 692.8, 706.2 691.3, 708.0 690.0 C 709.8 688.7, 712.2 687.3, 714.0 686.0 C 715.8 684.7, 717.3 683.2, 719.0 682.0 C 720.7 680.8, 722.3 680.2, 724.0 679.0 C 725.7 677.8, 727.3 676.3, 729.0 675.0 C 730.7 673.7, 732.3 672.3, 734.0 671.0 C 735.7 669.7, 737.3 668.3, 739.0 667.0 C 740.7 665.7, 742.3 664.5, 744.0 663.0 C 745.7 661.5, 747.3 659.5, 749.0 658.0 C 750.7 656.5, 752.3 655.5, 754.0 654.0 C 755.7 652.5, 757.3 650.7, 759.0 649.0 C 760.7 647.3, 762.5 645.7, 764.0 644.0 C 765.5 642.3, 766.5 640.7, 768.0 639.0 C 769.5 637.3, 771.5 635.7, 773.0 634.0 C 774.5 632.3, 775.7 630.7, 777.0 629.0 C 778.3 627.3, 779.7 625.7, 781.0 624.0 C 782.3 622.3, 783.7 620.7, 785.0 619.0 C 786.3 617.3, 787.8 615.7, 789.0 614.0 C 790.2 612.3, 790.8 610.7, 792.0 609.0 C 793.2 607.3, 794.8 605.7, 796.0 604.0 C 797.2 602.3, 798.0 600.7, 799.0 599.0 C 800.0 597.3, 801.0 595.7, 802.0 594.0 C 803.0 592.3, 804.2 590.7, 805.0 589.0 C 805.8 587.3, 806.2 585.7, 807.0 584.0 C 807.8 582.3, 809.2 580.7, 810.0 579.0 C 810.8 577.3, 811.3 575.7, 812.0 574.0 C 812.7 572.3, 813.3 570.7, 814.0 569.0 C 814.7 567.3, 815.2 565.7, 816.0 564.0 C 816.8 562.3, 818.2 560.7, 819.0 559.0 C 819.8 557.3, 820.5 555.7, 821.0 554.0 C 821.5 552.3, 821.5 550.7, 822.0 549.0 C 822.5 547.3, 823.3 545.7, 824.0 544.0 C 824.7 542.3, 825.5 540.7, 826.0 539.0 C 826.5 537.3, 826.5 535.7, 827.0 534.0 C 827.5 532.3, 828.5 530.7, 829.0 529.0 C 829.5 527.3, 829.5 525.7, 830.0 524.0 C 830.5 522.3, 831.5 520.7, 832.0 519.0 C 832.5 517.3, 832.5 515.7, 833.0 514.0 C 833.5 512.3, 834.5 510.7, 835.0 509.0 C 835.5 507.3, 835.7 505.7, 836.0 504.0 C 836.3 502.3, 836.5 500.7, 837.0 499.0 C 837.5 497.3, 838.5 495.7, 839.0 494.0 C 839.5 492.3, 839.5 490.7, 840.0 489.0 C 840.5 487.3, 841.5 485.7, 842.0 484.0 C 842.5 482.3, 842.5 480.7, 843.0 479.0 C 843.5 477.3, 844.5 475.7, 845.0 474.0 C 845.5 472.3, 845.5 470.7, 846.0 469.0 C 846.5 467.3, 847.3 465.7, 848.0 464.0 C 848.7 462.3, 849.5 460.7, 850.0 459.0 C 850.5 457.3, 850.5 455.7, 851.0 454.0 C 851.5 452.3, 852.3 450.7, 853.0 449.0 C 853.7 447.3, 854.3 445.7, 855.0 444.0 C 855.7 442.3, 856.3 440.7, 857.0 439.0 C 857.7 437.3, 858.3 435.7, 859.0 434.0 C 859.7 432.3, 860.2 430.7, 861.0 429.0 C 861.8 427.3, 863.2 425.7, 864.0 424.0 C 864.8 422.3, 865.2 420.7, 866.0 419.0 C 866.8 417.3, 868.0 415.7, 869.0 414.0 C 870.0 412.3, 871.0 410.7, 872.0 409.0 C 873.0 407.3, 874.0 405.7, 875.0 404.0 C 876.0 402.3, 877.0 400.7, 878.0 399.0 C 879.0 397.3, 879.8 395.7, 881.0 394.0 C 882.2 392.3, 883.8 390.7, 885.0 389.0 C 886.2 387.3, 886.8 385.7, 888.0 384.0 C 889.2 382.3, 890.7 380.7, 892.0 379.0 C 893.3 377.3, 894.5 375.7, 896.0 374.0 C 897.5 372.3, 899.3 370.7, 901.0 369.0 C 902.7 367.3, 904.3 365.7, 906.0 364.0 C 907.7 362.3, 909.3 360.5, 911.0 359.0 C 912.7 357.5, 914.3 356.3, 916.0 355.0 C 917.7 353.7, 919.3 352.3, 921.0 351.0 C 922.7 349.7, 924.3 348.2, 926.0 347.0 C 927.7 345.8, 929.7 344.0, 931.0 344.0 C 932.3 344.0, 933.3 345.7, 934.0 347.0 C 934.7 348.3, 934.7 350.3, 935.0 352.0 C 935.3 353.7, 935.8 355.3, 936.0 357.0 C 936.2 358.7, 935.8 360.3, 936.0 362.0 C 936.2 363.7, 936.7 365.3, 937.0 367.0 C 937.3 368.7, 937.7 370.3, 938.0 372.0 C 938.3 373.7, 938.8 375.3, 939.0 377.0 C 939.2 378.7, 938.8 380.3, 939.0 382.0 C 939.2 383.7, 939.7 385.3, 940.0 387.0 C 940.3 388.7, 940.7 390.3, 941.0 392.0 C 941.3 393.7, 941.7 395.3, 942.0 397.0 C 942.3 398.7, 942.7 400.3, 943.0 402.0 C 943.3 403.7, 943.5 405.3, 944.0 407.0 C 944.5 408.7, 945.2 410.3, 946.0 412.0 C 946.8 413.7, 947.7 415.8, 949.0 417.0 C 950.3 418.2, 952.3 418.5, 954.0 419.0 C 955.7 419.5, 957.3 419.5, 959.0 420.0 C 960.7 420.5, 962.3 421.5, 964.0 422.0 C 965.7 422.5, 967.3 422.5, 969.0 423.0 C 970.7 423.5, 972.3 424.5, 974.0 425.0 C 975.7 425.5, 977.3 425.5, 979.0 426.0 C 980.7 426.5, 982.3 427.3, 984.0 428.0 C 985.7 428.7, 987.3 429.2, 989.0 430.0 C 990.7 430.8, 992.3 432.0, 994.0 433.0 C 995.7 434.0, 997.3 435.0, 999.0 436.0 C 1000.7 437.0, 1002.3 437.8, 1004.0 439.0 C 1005.7 440.2, 1007.3 441.7, 1009.0 443.0 C 1010.7 444.3, 1012.3 445.5, 1014.0 447.0 C 1015.7 448.5, 1017.5 450.3, 1019.0 452.0 C 1020.5 453.7, 1021.7 455.3, 1023.0 457.0 C 1024.3 458.7, 1025.8 460.3, 1027.0 462.0 C 1028.2 463.7, 1029.2 465.3, 1030.0 467.0 C 1030.8 468.7, 1031.3 470.3, 1032.0 472.0 C 1032.7 473.7, 1033.3 475.3, 1034.0 477.0 C 1034.7 478.7, 1035.5 480.3, 1036.0 482.0 C 1036.5 483.7, 1036.7 485.3, 1037.0 487.0 C 1037.3 488.7, 1037.7 490.3, 1038.0 492.0 C 1038.3 493.7, 1038.8 495.2, 1039.0 497.0 C 1039.2 498.8, 1038.7 501.2, 1039.0 503.0 C 1039.3 504.8, 1040.2 506.3, 1041.0 508.0 C 1041.8 509.7, 1042.8 511.3, 1044.0 513.0 C 1045.2 514.7, 1046.5 516.5, 1048.0 518.0 C 1049.5 519.5, 1051.3 520.5, 1053.0 522.0 C 1054.7 523.5, 1056.3 525.3, 1058.0 527.0 C 1059.7 528.7, 1061.7 530.3, 1063.0 532.0 C 1064.3 533.7, 1065.3 535.3, 1066.0 537.0 C 1066.7 538.7, 1067.0 540.3, 1067.0 542.0 C 1067.0 543.7, 1066.5 545.3, 1066.0 547.0 C 1065.5 548.7, 1064.5 550.3, 1064.0 552.0 C 1063.5 553.7, 1063.7 555.3, 1063.0 557.0 C 1062.3 558.7, 1061.0 560.3, 1060.0 562.0 C 1059.0 563.7, 1058.0 565.3, 1057.0 567.0 C 1056.0 568.7, 1055.2 570.3, 1054.0 572.0 C 1052.8 573.7, 1051.5 575.3, 1050.0 577.0 C 1048.5 578.7, 1046.7 580.5, 1045.0 582.0 C 1043.3 583.5, 1041.7 584.7, 1040.0 586.0 C 1038.3 587.3, 1036.7 588.8, 1035.0 590.0 C 1033.3 591.2, 1031.7 592.2, 1030.0 593.0 C 1028.3 593.8, 1026.7 594.5, 1025.0 595.0 C 1023.3 595.5, 1021.7 595.7, 1020.0 596.0 C 1018.3 596.3, 1016.7 596.7, 1015.0 597.0 C 1013.3 597.3, 1011.7 597.7, 1010.0 598.0 C 1008.3 598.3, 1006.7 598.8, 1005.0 599.0 C 1003.3 599.2, 1001.7 598.8, 1000.0 599.0 C 998.3 599.2, 996.7 599.8, 995.0 600.0 C 993.3 600.2, 991.7 599.8, 990.0 600.0 C 988.3 600.2, 986.7 600.7, 985.0 601.0 C 983.3 601.3, 981.7 601.5, 980.0 602.0 C 978.3 602.5, 976.7 603.3, 975.0 604.0 C 973.3 604.7, 971.7 605.3, 970.0 606.0 C 968.3 606.7, 966.7 607.2, 965.0 608.0 C 963.3 608.8, 961.7 609.7, 960.0 611.0 C 958.3 612.3, 956.7 614.3, 955.0 616.0 C 953.3 617.7, 951.3 619.3, 950.0 621.0 C 948.7 622.7, 947.8 624.3, 947.0 626.0 C 946.2 627.7, 945.7 629.3, 945.0 631.0 C 944.3 632.7, 943.5 634.3, 943.0 636.0 C 942.5 637.7, 942.3 639.3, 942.0 641.0 C 941.7 642.7, 941.3 644.3, 941.0 646.0 C 940.7 647.7, 940.2 649.3, 940.0 651.0 C 939.8 652.7, 940.0 654.3, 940.0 656.0 C 940.0 657.7, 939.8 659.3, 940.0 661.0 C 940.2 662.7, 940.7 664.3, 941.0 666.0 C 941.3 667.7, 941.7 669.3, 942.0 671.0 C 942.3 672.7, 942.7 674.3, 943.0 676.0 C 943.3 677.7, 943.5 679.3, 944.0 681.0 C 944.5 682.7, 945.3 684.3, 946.0 686.0 C 946.7 687.7, 947.3 689.3, 948.0 691.0 C 948.7 692.7, 949.2 694.3, 950.0 696.0 C 950.8 697.7, 952.2 699.3, 953.0 701.0 C 953.8 702.7, 954.3 704.3, 955.0 706.0 C 955.7 707.7, 956.2 709.3, 957.0 711.0 C 957.8 712.7, 959.2 714.3, 960.0 716.0 C 960.8 717.7, 961.2 719.3, 962.0 721.0 C 962.8 722.7, 964.0 724.3, 965.0 726.0 C 966.0 727.7, 967.2 729.3, 968.0 731.0 C 968.8 732.7, 969.3 734.3, 970.0 736.0 C 970.7 737.7, 971.3 739.3, 972.0 741.0 C 972.7 742.7, 973.3 744.3, 974.0 746.0 C 974.7 747.7, 975.2 749.3, 976.0 751.0 C 976.8 752.7, 978.2 754.3, 979.0 756.0 C 979.8 757.7, 980.5 759.3, 981.0 761.0 C 981.5 762.7, 981.5 764.3, 982.0 766.0 C 982.5 767.7, 983.3 769.3, 984.0 771.0 C 984.7 772.7, 985.5 774.3, 986.0 776.0 C 986.5 777.7, 986.5 779.3, 987.0 781.0 C 987.5 782.7, 988.5 784.3, 989.0 786.0 C 989.5 787.7, 989.7 789.3, 990.0 791.0 C 990.3 792.7, 990.5 794.3, 991.0 796.0 C 991.5 797.7, 992.5 799.3, 993.0 801.0 C 993.5 802.7, 993.7 804.3, 994.0 806.0 C 994.3 807.7, 994.7 809.3, 995.0 811.0 C 995.3 812.7, 995.7 814.3, 996.0 816.0 C 996.3 817.7, 996.7 819.3, 997.0 821.0 C 997.3 822.7, 997.7 824.3, 998.0 826.0 C 998.3 827.7, 998.7 829.3, 999.0 831.0 C 999.3 832.7, 999.7 834.3, 1000.0 836.0 C 1000.3 837.7, 1000.5 839.3, 1001.0 841.0 C 1001.5 842.7, 1002.5 844.3, 1003.0 846.0 C 1003.5 847.7, 1003.5 849.3, 1004.0 851.0 C 1004.5 852.7, 1005.5 854.3, 1006.0 856.0 C 1006.5 857.7, 1006.5 859.3, 1007.0 861.0 C 1007.5 862.7, 1008.0 864.8, 1009.0 866.0 C 1010.0 867.2, 1012.0 868.5, 1013.0 868.0 C 1014.0 867.5, 1014.3 864.7, 1015.0 863.0 C 1015.7 861.3, 1016.3 859.7, 1017.0 858.0 C 1017.7 856.3, 1018.3 854.7, 1019.0 853.0 C 1019.7 851.3, 1020.5 849.7, 1021.0 848.0 C 1021.5 846.3, 1021.7 844.7, 1022.0 843.0 C 1022.3 841.3, 1022.7 839.7, 1023.0 838.0 C 1023.3 836.3, 1023.7 834.7, 1024.0 833.0 C 1024.3 831.3, 1024.7 829.7, 1025.0 828.0 C 1025.3 826.3, 1025.8 824.7, 1026.0 823.0 C 1026.2 821.3, 1026.0 819.7, 1026.0 818.0 C 1026.0 816.3, 1025.8 814.7, 1026.0 813.0 C 1026.2 811.3, 1027.0 809.7, 1027.0 808.0 C 1027.0 806.3, 1026.2 804.7, 1026.0 803.0 C 1025.8 801.3, 1026.0 799.7, 1026.0 798.0 C 1026.0 796.3, 1026.2 794.7, 1026.0 793.0 C 1025.8 791.3, 1025.2 789.7, 1025.0 788.0 C 1024.8 786.3, 1025.2 784.7, 1025.0 783.0 C 1024.8 781.3, 1024.3 779.7, 1024.0 778.0 C 1023.7 776.3, 1023.3 774.7, 1023.0 773.0 C 1022.7 771.3, 1022.3 769.7, 1022.0 768.0 C 1021.7 766.3, 1021.5 764.7, 1021.0 763.0 C 1020.5 761.3, 1019.5 759.7, 1019.0 758.0 C 1018.5 756.3, 1018.5 754.8, 1018.0 753.0 C 1017.5 751.2, 1016.7 748.8, 1016.0 747.0 C 1015.3 745.2, 1014.7 743.7, 1014.0 742.0 C 1013.3 740.3, 1012.8 738.7, 1012.0 737.0 C 1011.2 735.3, 1009.8 733.7, 1009.0 732.0 C 1008.2 730.3, 1007.7 728.7, 1007.0 727.0 C 1006.3 725.3, 1005.8 723.7, 1005.0 722.0 C 1004.2 720.3, 1002.8 718.7, 1002.0 717.0 C 1001.2 715.3, 1000.8 713.7, 1000.0 712.0 C 999.2 710.3, 998.0 708.7, 997.0 707.0 C 996.0 705.3, 994.8 703.7, 994.0 702.0 C 993.2 700.3, 992.8 698.7, 992.0 697.0 C 991.2 695.3, 990.0 693.7, 989.0 692.0 C 988.0 690.3, 986.8 688.7, 986.0 687.0 C 985.2 685.3, 984.8 683.7, 984.0 682.0 C 983.2 680.3, 981.8 678.7, 981.0 677.0 C 980.2 675.3, 979.7 673.7, 979.0 672.0 C 978.3 670.3, 977.5 668.7, 977.0 667.0 C 976.5 665.3, 976.2 663.7, 976.0 662.0 C 975.8 660.3, 976.0 658.7, 976.0 657.0 C 976.0 655.3, 975.8 653.7, 976.0 652.0 C 976.2 650.3, 976.5 648.7, 977.0 647.0 C 977.5 645.3, 978.0 643.7, 979.0 642.0 C 980.0 640.3, 981.5 638.3, 983.0 637.0 C 984.5 635.7, 986.3 634.8, 988.0 634.0 C 989.7 633.2, 991.3 632.7, 993.0 632.0 C 994.7 631.3, 996.3 630.3, 998.0 630.0 C 999.7 629.7, 1001.3 630.2, 1003.0 630.0 C 1004.7 629.8, 1006.3 629.3, 1008.0 629.0 C 1009.7 628.7, 1011.3 628.3, 1013.0 628.0 C 1014.7 627.7, 1016.3 627.3, 1018.0 627.0 C 1019.7 626.7, 1021.3 626.3, 1023.0 626.0 C 1024.7 625.7, 1026.3 625.5, 1028.0 625.0 C 1029.7 624.5, 1031.3 623.5, 1033.0 623.0 C 1034.7 622.5, 1036.3 622.7, 1038.0 622.0 C 1039.7 621.3, 1041.3 619.8, 1043.0 619.0 C 1044.7 618.2, 1046.3 617.8, 1048.0 617.0 C 1049.7 616.2, 1051.3 615.2, 1053.0 614.0 C 1054.7 612.8, 1056.3 611.3, 1058.0 610.0 C 1059.7 608.7, 1061.3 607.3, 1063.0 606.0 C 1064.7 604.7, 1066.5 603.5, 1068.0 602.0 C 1069.5 600.5, 1070.7 598.7, 1072.0 597.0 C 1073.3 595.3, 1074.7 593.7, 1076.0 592.0 C 1077.3 590.3, 1078.8 588.7, 1080.0 587.0 C 1081.2 585.3, 1082.2 583.7, 1083.0 582.0 C 1083.8 580.3, 1084.3 578.7, 1085.0 577.0 C 1085.7 575.3, 1086.3 573.7, 1087.0 572.0 C 1087.7 570.3, 1088.3 568.7, 1089.0 567.0 C 1089.7 565.3, 1090.3 563.7, 1091.0 562.0 C 1091.7 560.3, 1092.5 558.7, 1093.0 557.0 C 1093.5 555.3, 1093.7 553.7, 1094.0 552.0 C 1094.3 550.3, 1094.7 548.7, 1095.0 547.0 C 1095.3 545.3, 1095.7 543.7, 1096.0 542.0 C 1096.3 540.3, 1097.0 538.7, 1097.0 537.0 C 1097.0 535.3, 1096.2 533.7, 1096.0 532.0 C 1095.8 530.3, 1096.3 528.7, 1096.0 527.0 C 1095.7 525.3, 1094.8 523.7, 1094.0 522.0 C 1093.2 520.3, 1092.3 518.5, 1091.0 517.0 C 1089.7 515.5, 1087.7 514.3, 1086.0 513.0 C 1084.3 511.7, 1082.7 510.3, 1081.0 509.0 C 1079.3 507.7, 1077.5 506.5, 1076.0 505.0 C 1074.5 503.5, 1073.3 501.7, 1072.0 500.0 C 1070.7 498.3, 1068.8 496.7, 1068.0 495.0 C 1067.2 493.3, 1067.3 491.7, 1067.0 490.0 C 1066.7 488.3, 1066.3 486.7, 1066.0 485.0 C 1065.7 483.3, 1065.3 481.7, 1065.0 480.0 C 1064.7 478.3, 1064.3 476.7, 1064.0 475.0 C 1063.7 473.3, 1063.3 471.7, 1063.0 470.0 C 1062.7 468.3, 1062.3 466.7, 1062.0 465.0 C 1061.7 463.3, 1061.5 461.7, 1061.0 460.0 C 1060.5 458.3, 1059.7 456.7, 1059.0 455.0 C 1058.3 453.3, 1057.8 451.7, 1057.0 450.0 C 1056.2 448.3, 1055.0 446.7, 1054.0 445.0 C 1053.0 443.3, 1052.0 441.7, 1051.0 440.0 C 1050.0 438.3, 1049.2 436.7, 1048.0 435.0 C 1046.8 433.3, 1045.3 431.7, 1044.0 430.0 C 1042.7 428.3, 1041.5 426.5, 1040.0 425.0 C 1038.5 423.5, 1036.7 422.5, 1035.0 421.0 C 1033.3 419.5, 1031.7 417.3, 1030.0 416.0 C 1028.3 414.7, 1026.7 414.2, 1025.0 413.0 C 1023.3 411.8, 1021.7 410.2, 1020.0 409.0 C 1018.3 407.8, 1016.7 407.0, 1015.0 406.0 C 1013.3 405.0, 1011.7 404.0, 1010.0 403.0 C 1008.3 402.0, 1006.7 400.8, 1005.0 400.0 C 1003.3 399.2, 1001.7 398.8, 1000.0 398.0 C 998.3 397.2, 996.7 395.8, 995.0 395.0 C 993.3 394.2, 991.7 393.7, 990.0 393.0 C 988.3 392.3, 986.7 391.5, 985.0 391.0 C 983.3 390.5, 981.5 390.8, 980.0 390.0 C 978.5 389.2, 976.7 387.5, 976.0 386.0 C 975.3 384.5, 976.2 382.7, 976.0 381.0 C 975.8 379.3, 975.3 377.7, 975.0 376.0 C 974.7 374.3, 974.2 372.7, 974.0 371.0 C 973.8 369.3, 974.2 367.7, 974.0 366.0 C 973.8 364.3, 973.3 362.7, 973.0 361.0 C 972.7 359.3, 972.2 357.7, 972.0 356.0 C 971.8 354.3, 972.2 352.7, 972.0 351.0 C 971.8 349.3, 971.2 347.7, 971.0 346.0 C 970.8 344.3, 971.2 342.7, 971.0 341.0 C 970.8 339.3, 970.3 337.7, 970.0 336.0 C 969.7 334.3, 969.2 332.7, 969.0 331.0 C 968.8 329.3, 969.2 327.7, 969.0 326.0 C 968.8 324.3, 968.3 322.7, 968.0 321.0 C 967.7 319.3, 967.2 317.7, 967.0 316.0 C 966.8 314.3, 967.2 312.7, 967.0 311.0 C 966.8 309.3, 966.3 307.7, 966.0 306.0 C 965.7 304.3, 965.5 302.7, 965.0 301.0 C 964.5 299.3, 964.0 297.7, 963.0 296.0 C 962.0 294.3, 960.5 292.2, 959.0 291.0 C 957.5 289.8, 955.8 289.3, 954.0 289.0 C 952.2 288.7, 949.2 289.0, 948.0 289.0 C 946.8 289.0, 948.0 288.7, 947.0 289.0 Z M 493.0 139.0 C 492.0 139.2, 489.7 139.8, 488.0 140.0 C 486.3 140.2, 484.7 140.0, 483.0 140.0 C 481.3 140.0, 479.7 139.8, 478.0 140.0 C 476.3 140.2, 474.7 140.8, 473.0 141.0 C 471.3 141.2, 469.7 140.8, 468.0 141.0 C 466.3 141.2, 464.7 141.7, 463.0 142.0 C 461.3 142.3, 459.7 142.7, 458.0 143.0 C 456.3 143.3, 454.7 143.7, 453.0 144.0 C 451.3 144.3, 449.7 144.7, 448.0 145.0 C 446.3 145.3, 444.7 145.7, 443.0 146.0 C 441.3 146.3, 439.7 146.5, 438.0 147.0 C 436.3 147.5, 434.7 148.3, 433.0 149.0 C 431.3 149.7, 429.7 150.5, 428.0 151.0 C 426.3 151.5, 424.7 151.5, 423.0 152.0 C 421.3 152.5, 419.7 153.3, 418.0 154.0 C 416.3 154.7, 414.7 155.2, 413.0 156.0 C 411.3 156.8, 409.7 158.2, 408.0 159.0 C 406.3 159.8, 404.7 160.2, 403.0 161.0 C 401.3 161.8, 399.7 163.0, 398.0 164.0 C 396.3 165.0, 394.7 166.0, 393.0 167.0 C 391.3 168.0, 389.7 169.0, 388.0 170.0 C 386.3 171.0, 384.7 171.8, 383.0 173.0 C 381.3 174.2, 379.7 175.7, 378.0 177.0 C 376.3 178.3, 374.7 179.7, 373.0 181.0 C 371.3 182.3, 369.7 183.7, 368.0 185.0 C 366.3 186.3, 364.7 187.5, 363.0 189.0 C 361.3 190.5, 359.5 192.3, 358.0 194.0 C 356.5 195.7, 355.5 197.3, 354.0 199.0 C 352.5 200.7, 350.5 202.3, 349.0 204.0 C 347.5 205.7, 346.3 207.3, 345.0 209.0 C 343.7 210.7, 342.2 212.3, 341.0 214.0 C 339.8 215.7, 339.2 217.3, 338.0 219.0 C 336.8 220.7, 335.2 222.3, 334.0 224.0 C 332.8 225.7, 332.0 227.3, 331.0 229.0 C 330.0 230.7, 329.0 232.3, 328.0 234.0 C 327.0 235.7, 326.0 237.3, 325.0 239.0 C 324.0 240.7, 323.0 242.3, 322.0 244.0 C 321.0 245.7, 320.0 247.3, 319.0 249.0 C 318.0 250.7, 317.0 252.3, 316.0 254.0 C 315.0 255.7, 314.2 257.3, 313.0 259.0 C 311.8 260.7, 310.5 262.3, 309.0 264.0 C 307.5 265.7, 305.7 267.5, 304.0 269.0 C 302.3 270.5, 300.7 271.7, 299.0 273.0 C 297.3 274.3, 295.7 275.7, 294.0 277.0 C 292.3 278.3, 290.7 279.8, 289.0 281.0 C 287.3 282.2, 285.7 283.2, 284.0 284.0 C 282.3 284.8, 280.7 285.3, 279.0 286.0 C 277.3 286.7, 275.7 287.3, 274.0 288.0 C 272.3 288.7, 270.7 289.3, 269.0 290.0 C 267.3 290.7, 265.7 291.3, 264.0 292.0 C 262.3 292.7, 260.7 293.5, 259.0 294.0 C 257.3 294.5, 255.7 294.7, 254.0 295.0 C 252.3 295.3, 250.7 295.7, 249.0 296.0 C 247.3 296.3, 245.7 296.7, 244.0 297.0 C 242.3 297.3, 240.7 297.7, 239.0 298.0 C 237.3 298.3, 235.7 298.7, 234.0 299.0 C 232.3 299.3, 230.7 299.8, 229.0 300.0 C 227.3 300.2, 225.7 299.8, 224.0 300.0 C 222.3 300.2, 220.7 300.7, 219.0 301.0 C 217.3 301.3, 215.7 301.8, 214.0 302.0 C 212.3 302.2, 210.7 301.8, 209.0 302.0 C 207.3 302.2, 205.7 302.8, 204.0 303.0 C 202.3 303.2, 200.7 302.8, 199.0 303.0 C 197.3 303.2, 195.7 303.8, 194.0 304.0 C 192.3 304.2, 190.7 303.8, 189.0 304.0 C 187.3 304.2, 185.7 304.7, 184.0 305.0 C 182.3 305.3, 180.7 305.8, 179.0 306.0 C 177.3 306.2, 175.7 305.8, 174.0 306.0 C 172.3 306.2, 170.7 306.5, 169.0 307.0 C 167.3 307.5, 165.7 308.3, 164.0 309.0 C 162.3 309.7, 160.7 310.2, 159.0 311.0 C 157.3 311.8, 155.5 312.8, 154.0 314.0 C 152.5 315.2, 151.2 316.5, 150.0 318.0 C 148.8 319.5, 147.8 321.3, 147.0 323.0 C 146.2 324.7, 145.5 326.3, 145.0 328.0 C 144.5 329.7, 144.2 331.3, 144.0 333.0 C 143.8 334.7, 144.0 336.3, 144.0 338.0 C 144.0 339.7, 144.0 341.3, 144.0 343.0 C 144.0 344.7, 143.8 346.3, 144.0 348.0 C 144.2 349.7, 144.8 351.3, 145.0 353.0 C 145.2 354.7, 144.8 356.3, 145.0 358.0 C 145.2 359.7, 145.7 361.3, 146.0 363.0 C 146.3 364.7, 146.5 366.3, 147.0 368.0 C 147.5 369.7, 148.3 371.3, 149.0 373.0 C 149.7 374.7, 150.5 376.3, 151.0 378.0 C 151.5 379.7, 151.3 381.3, 152.0 383.0 C 152.7 384.7, 154.3 386.3, 155.0 388.0 C 155.7 389.7, 155.7 391.3, 156.0 393.0 C 156.3 394.7, 156.7 396.3, 157.0 398.0 C 157.3 399.7, 157.7 401.3, 158.0 403.0 C 158.3 404.7, 158.7 406.3, 159.0 408.0 C 159.3 409.7, 159.5 411.3, 160.0 413.0 C 160.5 414.7, 161.5 416.3, 162.0 418.0 C 162.5 419.7, 162.5 421.3, 163.0 423.0 C 163.5 424.7, 164.3 426.3, 165.0 428.0 C 165.7 429.7, 166.2 431.3, 167.0 433.0 C 167.8 434.7, 169.2 436.3, 170.0 438.0 C 170.8 439.7, 171.2 441.3, 172.0 443.0 C 172.8 444.7, 174.0 446.3, 175.0 448.0 C 176.0 449.7, 177.0 451.3, 178.0 453.0 C 179.0 454.7, 179.8 456.3, 181.0 458.0 C 182.2 459.7, 183.8 461.3, 185.0 463.0 C 186.2 464.7, 186.7 466.3, 188.0 468.0 C 189.3 469.7, 191.5 471.3, 193.0 473.0 C 194.5 474.7, 195.5 476.3, 197.0 478.0 C 198.5 479.7, 200.3 481.5, 202.0 483.0 C 203.7 484.5, 205.3 485.7, 207.0 487.0 C 208.7 488.3, 210.3 489.8, 212.0 491.0 C 213.7 492.2, 215.3 493.0, 217.0 494.0 C 218.7 495.0, 220.3 496.0, 222.0 497.0 C 223.7 498.0, 225.3 499.0, 227.0 500.0 C 228.7 501.0, 230.3 502.2, 232.0 503.0 C 233.7 503.8, 235.3 504.3, 237.0 505.0 C 238.7 505.7, 240.3 506.3, 242.0 507.0 C 243.7 507.7, 245.3 508.5, 247.0 509.0 C 248.7 509.5, 250.3 509.5, 252.0 510.0 C 253.7 510.5, 255.3 511.5, 257.0 512.0 C 258.7 512.5, 260.3 512.7, 262.0 513.0 C 263.7 513.3, 265.3 513.7, 267.0 514.0 C 268.7 514.3, 270.3 514.7, 272.0 515.0 C 273.7 515.3, 275.3 515.8, 277.0 516.0 C 278.7 516.2, 280.3 515.8, 282.0 516.0 C 283.7 516.2, 285.3 516.8, 287.0 517.0 C 288.7 517.2, 290.3 517.0, 292.0 517.0 C 293.7 517.0, 295.3 516.8, 297.0 517.0 C 298.7 517.2, 300.3 517.8, 302.0 518.0 C 303.7 518.2, 305.3 518.0, 307.0 518.0 C 308.7 518.0, 310.3 518.0, 312.0 518.0 C 313.7 518.0, 315.2 518.0, 317.0 518.0 C 318.8 518.0, 321.2 518.0, 323.0 518.0 C 324.8 518.0, 326.3 518.0, 328.0 518.0 C 329.7 518.0, 331.3 518.0, 333.0 518.0 C 334.7 518.0, 336.3 518.0, 338.0 518.0 C 339.7 518.0, 341.3 518.0, 343.0 518.0 C 344.7 518.0, 346.3 518.0, 348.0 518.0 C 349.7 518.0, 351.3 518.0, 353.0 518.0 C 354.7 518.0, 356.3 517.8, 358.0 518.0 C 359.7 518.2, 361.3 518.8, 363.0 519.0 C 364.7 519.2, 366.3 518.7, 368.0 519.0 C 369.7 519.3, 371.3 520.5, 373.0 521.0 C 374.7 521.5, 376.3 521.5, 378.0 522.0 C 379.7 522.5, 381.3 523.2, 383.0 524.0 C 384.7 524.8, 386.3 526.0, 388.0 527.0 C 389.7 528.0, 391.3 529.0, 393.0 530.0 C 394.7 531.0, 396.3 531.7, 398.0 533.0 C 399.7 534.3, 401.3 536.3, 403.0 538.0 C 404.7 539.7, 406.7 541.3, 408.0 543.0 C 409.3 544.7, 410.0 546.3, 411.0 548.0 C 412.0 549.7, 413.2 551.3, 414.0 553.0 C 414.8 554.7, 415.3 556.3, 416.0 558.0 C 416.7 559.7, 417.3 561.3, 418.0 563.0 C 418.7 564.7, 419.3 566.3, 420.0 568.0 C 420.7 569.7, 421.5 571.3, 422.0 573.0 C 422.5 574.7, 422.7 576.3, 423.0 578.0 C 423.3 579.7, 423.8 581.3, 424.0 583.0 C 424.2 584.7, 423.8 586.3, 424.0 588.0 C 424.2 589.7, 424.8 591.3, 425.0 593.0 C 425.2 594.7, 425.0 596.3, 425.0 598.0 C 425.0 599.7, 425.0 601.3, 425.0 603.0 C 425.0 604.7, 425.0 606.3, 425.0 608.0 C 425.0 609.7, 425.0 611.3, 425.0 613.0 C 425.0 614.7, 425.0 616.3, 425.0 618.0 C 425.0 619.7, 425.2 621.3, 425.0 623.0 C 424.8 624.7, 424.2 626.3, 424.0 628.0 C 423.8 629.7, 424.2 631.3, 424.0 633.0 C 423.8 634.7, 423.2 636.3, 423.0 638.0 C 422.8 639.7, 423.2 641.3, 423.0 643.0 C 422.8 644.7, 422.3 646.3, 422.0 648.0 C 421.7 649.7, 421.3 651.3, 421.0 653.0 C 420.7 654.7, 420.2 656.3, 420.0 658.0 C 419.8 659.7, 420.3 661.3, 420.0 663.0 C 419.7 664.7, 418.3 666.3, 418.0 668.0 C 417.7 669.7, 418.3 671.3, 418.0 673.0 C 417.7 674.7, 416.5 676.3, 416.0 678.0 C 415.5 679.7, 415.3 681.3, 415.0 683.0 C 414.7 684.7, 414.3 686.3, 414.0 688.0 C 413.7 689.7, 413.3 691.3, 413.0 693.0 C 412.7 694.7, 412.3 696.3, 412.0 698.0 C 411.7 699.7, 411.5 701.3, 411.0 703.0 C 410.5 704.7, 409.5 706.3, 409.0 708.0 C 408.5 709.7, 408.3 711.3, 408.0 713.0 C 407.7 714.7, 407.3 716.3, 407.0 718.0 C 406.7 719.7, 406.5 721.3, 406.0 723.0 C 405.5 724.7, 404.5 726.3, 404.0 728.0 C 403.5 729.7, 403.3 731.3, 403.0 733.0 C 402.7 734.7, 402.3 736.3, 402.0 738.0 C 401.7 739.7, 401.5 741.3, 401.0 743.0 C 400.5 744.7, 399.5 746.3, 399.0 748.0 C 398.5 749.7, 398.3 751.3, 398.0 753.0 C 397.7 754.7, 397.3 756.3, 397.0 758.0 C 396.7 759.7, 396.3 761.3, 396.0 763.0 C 395.7 764.7, 395.3 766.3, 395.0 768.0 C 394.7 769.7, 394.3 771.3, 394.0 773.0 C 393.7 774.7, 393.3 776.3, 393.0 778.0 C 392.7 779.7, 392.2 781.3, 392.0 783.0 C 391.8 784.7, 392.2 786.3, 392.0 788.0 C 391.8 789.7, 391.2 791.3, 391.0 793.0 C 390.8 794.7, 391.2 796.3, 391.0 798.0 C 390.8 799.7, 390.2 801.3, 390.0 803.0 C 389.8 804.7, 390.2 806.3, 390.0 808.0 C 389.8 809.7, 389.2 811.3, 389.0 813.0 C 388.8 814.7, 389.0 816.3, 389.0 818.0 C 389.0 819.7, 389.0 821.3, 389.0 823.0 C 389.0 824.7, 389.0 826.3, 389.0 828.0 C 389.0 829.7, 389.0 831.3, 389.0 833.0 C 389.0 834.7, 389.0 836.3, 389.0 838.0 C 389.0 839.7, 388.8 841.3, 389.0 843.0 C 389.2 844.7, 389.8 846.3, 390.0 848.0 C 390.2 849.7, 390.0 851.3, 390.0 853.0 C 390.0 854.7, 389.8 856.3, 390.0 858.0 C 390.2 859.7, 390.7 861.3, 391.0 863.0 C 391.3 864.7, 391.7 866.3, 392.0 868.0 C 392.3 869.7, 392.7 871.3, 393.0 873.0 C 393.3 874.7, 393.7 876.3, 394.0 878.0 C 394.3 879.7, 394.7 881.3, 395.0 883.0 C 395.3 884.7, 395.7 886.3, 396.0 888.0 C 396.3 889.7, 396.5 891.3, 397.0 893.0 C 397.5 894.7, 398.5 896.3, 399.0 898.0 C 399.5 899.7, 399.5 901.3, 400.0 903.0 C 400.5 904.7, 401.3 906.3, 402.0 908.0 C 402.7 909.7, 403.3 911.3, 404.0 913.0 C 404.7 914.7, 405.3 916.3, 406.0 918.0 C 406.7 919.7, 407.2 921.3, 408.0 923.0 C 408.8 924.7, 410.2 926.3, 411.0 928.0 C 411.8 929.7, 412.2 931.3, 413.0 933.0 C 413.8 934.7, 415.0 936.3, 416.0 938.0 C 417.0 939.7, 417.8 941.3, 419.0 943.0 C 420.2 944.7, 422.0 947.7, 423.0 948.0 C 424.0 948.3, 424.5 946.3, 425.0 945.0 C 425.5 943.7, 425.8 941.7, 426.0 940.0 C 426.2 938.3, 425.8 936.7, 426.0 935.0 C 426.2 933.3, 426.7 931.7, 427.0 930.0 C 427.3 928.3, 427.8 926.7, 428.0 925.0 C 428.2 923.3, 427.8 921.7, 428.0 920.0 C 428.2 918.3, 428.7 916.7, 429.0 915.0 C 429.3 913.3, 429.7 911.7, 430.0 910.0 C 430.3 908.3, 430.7 906.7, 431.0 905.0 C 431.3 903.3, 431.7 901.7, 432.0 900.0 C 432.3 898.3, 432.7 896.7, 433.0 895.0 C 433.3 893.3, 433.8 891.7, 434.0 890.0 C 434.2 888.3, 434.2 886.7, 434.0 885.0 C 433.8 883.3, 433.3 881.7, 433.0 880.0 C 432.7 878.3, 432.3 876.7, 432.0 875.0 C 431.7 873.3, 431.3 871.7, 431.0 870.0 C 430.7 868.3, 430.3 866.7, 430.0 865.0 C 429.7 863.3, 429.3 861.7, 429.0 860.0 C 428.7 858.3, 428.2 856.7, 428.0 855.0 C 427.8 853.3, 428.0 851.7, 428.0 850.0 C 428.0 848.3, 428.0 846.7, 428.0 845.0 C 428.0 843.3, 428.2 841.7, 428.0 840.0 C 427.8 838.3, 427.2 836.7, 427.0 835.0 C 426.8 833.3, 426.8 831.7, 427.0 830.0 C 427.2 828.3, 427.8 826.7, 428.0 825.0 C 428.2 823.3, 428.0 821.7, 428.0 820.0 C 428.0 818.3, 428.0 816.7, 428.0 815.0 C 428.0 813.3, 427.8 811.7, 428.0 810.0 C 428.2 808.3, 428.7 806.7, 429.0 805.0 C 429.3 803.3, 429.8 801.8, 430.0 800.0 C 430.2 798.2, 429.8 795.8, 430.0 794.0 C 430.2 792.2, 430.7 790.7, 431.0 789.0 C 431.3 787.3, 431.7 785.7, 432.0 784.0 C 432.3 782.3, 432.7 780.7, 433.0 779.0 C 433.3 777.3, 433.7 775.7, 434.0 774.0 C 434.3 772.3, 434.7 770.7, 435.0 769.0 C 435.3 767.3, 435.7 765.7, 436.0 764.0 C 436.3 762.3, 436.7 760.7, 437.0 759.0 C 437.3 757.3, 437.7 755.7, 438.0 754.0 C 438.3 752.3, 438.5 750.7, 439.0 749.0 C 439.5 747.3, 440.5 745.7, 441.0 744.0 C 441.5 742.3, 441.7 740.7, 442.0 739.0 C 442.3 737.3, 442.7 735.7, 443.0 734.0 C 443.3 732.3, 443.5 730.7, 444.0 729.0 C 444.5 727.3, 445.5 725.7, 446.0 724.0 C 446.5 722.3, 446.7 720.7, 447.0 719.0 C 447.3 717.3, 447.7 715.7, 448.0 714.0 C 448.3 712.3, 448.5 710.7, 449.0 709.0 C 449.5 707.3, 450.5 705.7, 451.0 704.0 C 451.5 702.3, 451.7 700.7, 452.0 699.0 C 452.3 697.3, 452.7 695.7, 453.0 694.0 C 453.3 692.3, 453.7 690.7, 454.0 689.0 C 454.3 687.3, 454.7 685.7, 455.0 684.0 C 455.3 682.3, 455.7 680.7, 456.0 679.0 C 456.3 677.3, 456.7 675.7, 457.0 674.0 C 457.3 672.3, 457.7 670.7, 458.0 669.0 C 458.3 667.3, 458.7 665.7, 459.0 664.0 C 459.3 662.3, 459.7 660.7, 460.0 659.0 C 460.3 657.3, 460.7 655.7, 461.0 654.0 C 461.3 652.3, 461.8 650.7, 462.0 649.0 C 462.2 647.3, 461.8 645.7, 462.0 644.0 C 462.2 642.3, 462.8 640.7, 463.0 639.0 C 463.2 637.3, 463.0 635.7, 463.0 634.0 C 463.0 632.3, 462.8 630.7, 463.0 629.0 C 463.2 627.3, 463.8 625.7, 464.0 624.0 C 464.2 622.3, 464.0 620.7, 464.0 619.0 C 464.0 617.3, 464.0 615.7, 464.0 614.0 C 464.0 612.3, 464.0 610.7, 464.0 609.0 C 464.0 607.3, 464.0 605.7, 464.0 604.0 C 464.0 602.3, 464.0 600.7, 464.0 599.0 C 464.0 597.3, 464.2 595.7, 464.0 594.0 C 463.8 592.3, 463.2 590.7, 463.0 589.0 C 462.8 587.3, 463.2 585.7, 463.0 584.0 C 462.8 582.3, 462.3 580.7, 462.0 579.0 C 461.7 577.3, 461.3 575.7, 461.0 574.0 C 460.7 572.3, 460.3 570.7, 460.0 569.0 C 459.7 567.3, 459.3 565.7, 459.0 564.0 C 458.7 562.3, 458.5 560.7, 458.0 559.0 C 457.5 557.3, 456.5 555.7, 456.0 554.0 C 455.5 552.3, 455.5 550.7, 455.0 549.0 C 454.5 547.3, 453.7 545.7, 453.0 544.0 C 452.3 542.3, 451.8 540.7, 451.0 539.0 C 450.2 537.3, 449.0 535.7, 448.0 534.0 C 447.0 532.3, 446.0 530.7, 445.0 529.0 C 444.0 527.3, 443.0 525.7, 442.0 524.0 C 441.0 522.3, 440.2 520.7, 439.0 519.0 C 437.8 517.3, 436.3 515.7, 435.0 514.0 C 433.7 512.3, 432.5 510.7, 431.0 509.0 C 429.5 507.3, 427.7 505.5, 426.0 504.0 C 424.3 502.5, 422.7 501.3, 421.0 500.0 C 419.3 498.7, 417.7 497.2, 416.0 496.0 C 414.3 494.8, 412.7 494.0, 411.0 493.0 C 409.3 492.0, 407.7 490.8, 406.0 490.0 C 404.3 489.2, 402.7 488.7, 401.0 488.0 C 399.3 487.3, 397.7 486.7, 396.0 486.0 C 394.3 485.3, 392.7 484.7, 391.0 484.0 C 389.3 483.3, 387.7 482.5, 386.0 482.0 C 384.3 481.5, 382.7 481.3, 381.0 481.0 C 379.3 480.7, 377.7 480.3, 376.0 480.0 C 374.3 479.7, 372.7 479.3, 371.0 479.0 C 369.3 478.7, 367.7 478.2, 366.0 478.0 C 364.3 477.8, 362.7 478.0, 361.0 478.0 C 359.3 478.0, 357.7 478.0, 356.0 478.0 C 354.3 478.0, 352.7 478.0, 351.0 478.0 C 349.3 478.0, 347.7 478.0, 346.0 478.0 C 344.3 478.0, 342.7 478.0, 341.0 478.0 C 339.3 478.0, 337.7 478.0, 336.0 478.0 C 334.3 478.0, 332.7 478.0, 331.0 478.0 C 329.3 478.0, 327.7 478.0, 326.0 478.0 C 324.3 478.0, 322.7 478.0, 321.0 478.0 C 319.3 478.0, 317.7 478.2, 316.0 478.0 C 314.3 477.8, 312.7 477.2, 311.0 477.0 C 309.3 476.8, 307.7 477.0, 306.0 477.0 C 304.3 477.0, 302.7 477.0, 301.0 477.0 C 299.3 477.0, 297.7 477.0, 296.0 477.0 C 294.3 477.0, 292.7 477.2, 291.0 477.0 C 289.3 476.8, 287.7 476.2, 286.0 476.0 C 284.3 475.8, 282.7 476.2, 281.0 476.0 C 279.3 475.8, 277.7 475.3, 276.0 475.0 C 274.3 474.7, 272.7 474.5, 271.0 474.0 C 269.3 473.5, 267.7 472.5, 266.0 472.0 C 264.3 471.5, 262.7 471.5, 261.0 471.0 C 259.3 470.5, 257.7 469.7, 256.0 469.0 C 254.3 468.3, 252.7 467.8, 251.0 467.0 C 249.3 466.2, 247.7 465.0, 246.0 464.0 C 244.3 463.0, 242.7 462.0, 241.0 461.0 C 239.3 460.0, 237.7 459.2, 236.0 458.0 C 234.3 456.8, 232.7 455.5, 231.0 454.0 C 229.3 452.5, 227.7 450.7, 226.0 449.0 C 224.3 447.3, 222.5 445.7, 221.0 444.0 C 219.5 442.3, 218.2 440.7, 217.0 439.0 C 215.8 437.3, 215.2 435.7, 214.0 434.0 C 212.8 432.3, 211.0 430.7, 210.0 429.0 C 209.0 427.3, 208.8 425.7, 208.0 424.0 C 207.2 422.3, 205.8 420.7, 205.0 419.0 C 204.2 417.3, 203.7 415.7, 203.0 414.0 C 202.3 412.3, 201.7 410.7, 201.0 409.0 C 200.3 407.3, 199.5 405.7, 199.0 404.0 C 198.5 402.3, 198.5 400.7, 198.0 399.0 C 197.5 397.3, 196.5 395.7, 196.0 394.0 C 195.5 392.3, 195.3 390.7, 195.0 389.0 C 194.7 387.3, 194.3 385.7, 194.0 384.0 C 193.7 382.3, 193.5 380.7, 193.0 379.0 C 192.5 377.3, 191.7 375.7, 191.0 374.0 C 190.3 372.3, 189.5 370.7, 189.0 369.0 C 188.5 367.3, 188.8 365.5, 188.0 364.0 C 187.2 362.5, 184.7 361.5, 184.0 360.0 C 183.3 358.5, 184.2 356.7, 184.0 355.0 C 183.8 353.3, 182.8 351.7, 183.0 350.0 C 183.2 348.3, 183.8 345.8, 185.0 345.0 C 186.2 344.2, 188.3 345.2, 190.0 345.0 C 191.7 344.8, 193.3 344.2, 195.0 344.0 C 196.7 343.8, 198.3 344.2, 200.0 344.0 C 201.7 343.8, 203.3 343.3, 205.0 343.0 C 206.7 342.7, 208.3 342.2, 210.0 342.0 C 211.7 341.8, 213.3 342.2, 215.0 342.0 C 216.7 341.8, 218.3 341.2, 220.0 341.0 C 221.7 340.8, 223.3 341.2, 225.0 341.0 C 226.7 340.8, 228.3 340.2, 230.0 340.0 C 231.7 339.8, 233.2 340.2, 235.0 340.0 C 236.8 339.8, 239.2 339.3, 241.0 339.0 C 242.8 338.7, 244.3 338.3, 246.0 338.0 C 247.7 337.7, 249.3 337.3, 251.0 337.0 C 252.7 336.7, 254.3 336.3, 256.0 336.0 C 257.7 335.7, 259.3 335.3, 261.0 335.0 C 262.7 334.7, 264.3 334.3, 266.0 334.0 C 267.7 333.7, 269.3 333.5, 271.0 333.0 C 272.7 332.5, 274.3 331.5, 276.0 331.0 C 277.7 330.5, 279.3 330.5, 281.0 330.0 C 282.7 329.5, 284.3 328.7, 286.0 328.0 C 287.7 327.3, 289.3 326.7, 291.0 326.0 C 292.7 325.3, 294.3 324.8, 296.0 324.0 C 297.7 323.2, 299.3 322.0, 301.0 321.0 C 302.7 320.0, 304.3 319.0, 306.0 318.0 C 307.7 317.0, 309.3 316.0, 311.0 315.0 C 312.7 314.0, 314.3 313.2, 316.0 312.0 C 317.7 310.8, 319.3 309.5, 321.0 308.0 C 322.7 306.5, 324.3 304.5, 326.0 303.0 C 327.7 301.5, 329.5 300.5, 331.0 299.0 C 332.5 297.5, 333.5 295.7, 335.0 294.0 C 336.5 292.3, 338.5 290.7, 340.0 289.0 C 341.5 287.3, 342.8 285.7, 344.0 284.0 C 345.2 282.3, 346.0 280.7, 347.0 279.0 C 348.0 277.3, 349.0 275.7, 350.0 274.0 C 351.0 272.3, 352.0 270.7, 353.0 269.0 C 354.0 267.3, 355.0 265.7, 356.0 264.0 C 357.0 262.3, 358.2 260.7, 359.0 259.0 C 359.8 257.3, 360.2 255.7, 361.0 254.0 C 361.8 252.3, 362.8 250.7, 364.0 249.0 C 365.2 247.3, 366.8 245.7, 368.0 244.0 C 369.2 242.3, 369.8 240.7, 371.0 239.0 C 372.2 237.3, 373.7 235.7, 375.0 234.0 C 376.3 232.3, 377.5 230.7, 379.0 229.0 C 380.5 227.3, 382.3 225.7, 384.0 224.0 C 385.7 222.3, 387.3 220.7, 389.0 219.0 C 390.7 217.3, 392.3 215.5, 394.0 214.0 C 395.7 212.5, 397.3 211.2, 399.0 210.0 C 400.7 208.8, 402.3 208.2, 404.0 207.0 C 405.7 205.8, 407.3 204.2, 409.0 203.0 C 410.7 201.8, 412.3 200.8, 414.0 200.0 C 415.7 199.2, 417.3 198.8, 419.0 198.0 C 420.7 197.2, 422.3 195.8, 424.0 195.0 C 425.7 194.2, 427.3 193.7, 429.0 193.0 C 430.7 192.3, 432.3 191.7, 434.0 191.0 C 435.7 190.3, 437.3 189.7, 439.0 189.0 C 440.7 188.3, 442.3 187.5, 444.0 187.0 C 445.7 186.5, 447.3 186.3, 449.0 186.0 C 450.7 185.7, 452.3 185.5, 454.0 185.0 C 455.7 184.5, 457.3 183.3, 459.0 183.0 C 460.7 182.7, 462.3 183.2, 464.0 183.0 C 465.7 182.8, 467.3 182.3, 469.0 182.0 C 470.7 181.7, 472.3 181.2, 474.0 181.0 C 475.7 180.8, 477.3 181.2, 479.0 181.0 C 480.7 180.8, 482.3 180.2, 484.0 180.0 C 485.7 179.8, 487.3 180.0, 489.0 180.0 C 490.7 180.0, 492.3 180.0, 494.0 180.0 C 495.7 180.0, 497.3 180.0, 499.0 180.0 C 500.7 180.0, 502.3 180.0, 504.0 180.0 C 505.7 180.0, 507.3 180.0, 509.0 180.0 C 510.7 180.0, 512.3 179.8, 514.0 180.0 C 515.7 180.2, 517.3 180.7, 519.0 181.0 C 520.7 181.3, 522.3 181.7, 524.0 182.0 C 525.7 182.3, 527.3 182.8, 529.0 183.0 C 530.7 183.2, 532.3 182.8, 534.0 183.0 C 535.7 183.2, 537.3 183.5, 539.0 184.0 C 540.7 184.5, 542.3 185.5, 544.0 186.0 C 545.7 186.5, 547.3 186.5, 549.0 187.0 C 550.7 187.5, 552.3 188.5, 554.0 189.0 C 555.7 189.5, 557.3 189.5, 559.0 190.0 C 560.7 190.5, 562.3 191.2, 564.0 192.0 C 565.7 192.8, 567.3 194.2, 569.0 195.0 C 570.7 195.8, 572.3 196.2, 574.0 197.0 C 575.7 197.8, 577.3 199.2, 579.0 200.0 C 580.7 200.8, 582.3 201.2, 584.0 202.0 C 585.7 202.8, 587.3 204.0, 589.0 205.0 C 590.7 206.0, 592.3 206.8, 594.0 208.0 C 595.7 209.2, 597.3 210.8, 599.0 212.0 C 600.7 213.2, 602.3 213.8, 604.0 215.0 C 605.7 216.2, 607.3 217.5, 609.0 219.0 C 610.7 220.5, 612.3 222.5, 614.0 224.0 C 615.7 225.5, 617.3 226.5, 619.0 228.0 C 620.7 229.5, 622.3 231.3, 624.0 233.0 C 625.7 234.7, 627.3 236.3, 629.0 238.0 C 630.7 239.7, 632.5 241.3, 634.0 243.0 C 635.5 244.7, 636.7 246.3, 638.0 248.0 C 639.3 249.7, 640.7 251.3, 642.0 253.0 C 643.3 254.7, 644.7 256.3, 646.0 258.0 C 647.3 259.7, 648.8 261.3, 650.0 263.0 C 651.2 264.7, 652.0 266.3, 653.0 268.0 C 654.0 269.7, 654.8 271.3, 656.0 273.0 C 657.2 274.7, 658.8 276.3, 660.0 278.0 C 661.2 279.7, 662.0 281.3, 663.0 283.0 C 664.0 284.7, 665.2 286.3, 666.0 288.0 C 666.8 289.7, 667.2 291.3, 668.0 293.0 C 668.8 294.7, 670.2 296.3, 671.0 298.0 C 671.8 299.7, 672.2 301.3, 673.0 303.0 C 673.8 304.7, 675.2 306.3, 676.0 308.0 C 676.8 309.7, 677.3 311.3, 678.0 313.0 C 678.7 314.7, 679.3 316.3, 680.0 318.0 C 680.7 319.7, 681.3 321.3, 682.0 323.0 C 682.7 324.7, 683.3 326.3, 684.0 328.0 C 684.7 329.7, 685.3 331.3, 686.0 333.0 C 686.7 334.7, 687.3 336.3, 688.0 338.0 C 688.7 339.7, 689.3 341.3, 690.0 343.0 C 690.7 344.7, 691.5 346.3, 692.0 348.0 C 692.5 349.7, 692.5 351.3, 693.0 353.0 C 693.5 354.7, 694.5 356.3, 695.0 358.0 C 695.5 359.7, 695.7 361.3, 696.0 363.0 C 696.3 364.7, 696.5 366.3, 697.0 368.0 C 697.5 369.7, 698.5 371.3, 699.0 373.0 C 699.5 374.7, 699.7 376.3, 700.0 378.0 C 700.3 379.7, 700.7 381.3, 701.0 383.0 C 701.3 384.7, 701.7 386.3, 702.0 388.0 C 702.3 389.7, 702.5 391.3, 703.0 393.0 C 703.5 394.7, 704.7 396.3, 705.0 398.0 C 705.3 399.7, 704.8 401.3, 705.0 403.0 C 705.2 404.7, 705.7 406.3, 706.0 408.0 C 706.3 409.7, 706.7 411.3, 707.0 413.0 C 707.3 414.7, 707.7 416.3, 708.0 418.0 C 708.3 419.7, 708.8 421.3, 709.0 423.0 C 709.2 424.7, 708.8 426.3, 709.0 428.0 C 709.2 429.7, 709.8 431.3, 710.0 433.0 C 710.2 434.7, 709.8 436.3, 710.0 438.0 C 710.2 439.7, 710.8 441.3, 711.0 443.0 C 711.2 444.7, 711.0 446.3, 711.0 448.0 C 711.0 449.7, 710.8 451.3, 711.0 453.0 C 711.2 454.7, 711.8 456.3, 712.0 458.0 C 712.2 459.7, 712.0 461.3, 712.0 463.0 C 712.0 464.7, 712.0 466.2, 712.0 468.0 C 712.0 469.8, 712.0 472.2, 712.0 474.0 C 712.0 475.8, 712.0 477.3, 712.0 479.0 C 712.0 480.7, 712.0 482.3, 712.0 484.0 C 712.0 485.7, 712.0 487.3, 712.0 489.0 C 712.0 490.7, 712.0 492.3, 712.0 494.0 C 712.0 495.7, 712.0 497.3, 712.0 499.0 C 712.0 500.7, 712.0 502.3, 712.0 504.0 C 712.0 505.7, 712.0 507.3, 712.0 509.0 C 712.0 510.7, 712.0 512.3, 712.0 514.0 C 712.0 515.7, 712.0 517.3, 712.0 519.0 C 712.0 520.7, 712.0 522.3, 712.0 524.0 C 712.0 525.7, 712.0 527.3, 712.0 529.0 C 712.0 530.7, 712.0 532.3, 712.0 534.0 C 712.0 535.7, 712.0 537.3, 712.0 539.0 C 712.0 540.7, 712.0 542.3, 712.0 544.0 C 712.0 545.7, 712.0 547.3, 712.0 549.0 C 712.0 550.7, 712.0 552.3, 712.0 554.0 C 712.0 555.7, 711.8 557.3, 712.0 559.0 C 712.2 560.7, 712.8 562.3, 713.0 564.0 C 713.2 565.7, 712.8 567.3, 713.0 569.0 C 713.2 570.7, 713.7 572.3, 714.0 574.0 C 714.3 575.7, 714.3 577.7, 715.0 579.0 C 715.7 580.3, 716.8 582.3, 718.0 582.0 C 719.2 581.7, 720.7 578.7, 722.0 577.0 C 723.3 575.3, 724.7 573.7, 726.0 572.0 C 727.3 570.3, 728.8 568.7, 730.0 567.0 C 731.2 565.3, 732.0 563.7, 733.0 562.0 C 734.0 560.3, 735.0 558.7, 736.0 557.0 C 737.0 555.3, 738.0 553.7, 739.0 552.0 C 740.0 550.3, 741.2 548.7, 742.0 547.0 C 742.8 545.3, 743.3 543.7, 744.0 542.0 C 744.7 540.3, 745.3 538.7, 746.0 537.0 C 746.7 535.3, 747.5 533.7, 748.0 532.0 C 748.5 530.3, 748.8 528.7, 749.0 527.0 C 749.2 525.3, 748.8 523.7, 749.0 522.0 C 749.2 520.3, 749.8 518.7, 750.0 517.0 C 750.2 515.3, 750.0 513.7, 750.0 512.0 C 750.0 510.3, 750.0 508.7, 750.0 507.0 C 750.0 505.3, 749.8 503.7, 750.0 502.0 C 750.2 500.3, 750.8 498.7, 751.0 497.0 C 751.2 495.3, 751.0 493.7, 751.0 492.0 C 751.0 490.3, 751.0 488.7, 751.0 487.0 C 751.0 485.3, 751.0 483.7, 751.0 482.0 C 751.0 480.3, 751.0 478.7, 751.0 477.0 C 751.0 475.3, 751.0 473.7, 751.0 472.0 C 751.0 470.3, 751.0 468.7, 751.0 467.0 C 751.0 465.3, 751.0 463.7, 751.0 462.0 C 751.0 460.3, 751.0 458.7, 751.0 457.0 C 751.0 455.3, 751.0 453.7, 751.0 452.0 C 751.0 450.3, 751.2 448.7, 751.0 447.0 C 750.8 445.3, 750.2 443.7, 750.0 442.0 C 749.8 440.3, 750.0 438.7, 750.0 437.0 C 750.0 435.3, 750.2 433.7, 750.0 432.0 C 749.8 430.3, 749.2 428.7, 749.0 427.0 C 748.8 425.3, 749.2 423.7, 749.0 422.0 C 748.8 420.3, 748.3 418.7, 748.0 417.0 C 747.7 415.3, 747.2 413.7, 747.0 412.0 C 746.8 410.3, 747.2 408.7, 747.0 407.0 C 746.8 405.3, 746.3 403.7, 746.0 402.0 C 745.7 400.3, 745.3 398.7, 745.0 397.0 C 744.7 395.3, 744.3 393.7, 744.0 392.0 C 743.7 390.3, 743.3 388.7, 743.0 387.0 C 742.7 385.3, 742.3 383.7, 742.0 382.0 C 741.7 380.3, 741.3 378.7, 741.0 377.0 C 740.7 375.3, 740.3 373.7, 740.0 372.0 C 739.7 370.3, 739.5 368.7, 739.0 367.0 C 738.5 365.3, 737.5 363.7, 737.0 362.0 C 736.5 360.3, 736.3 358.7, 736.0 357.0 C 735.7 355.3, 735.5 353.7, 735.0 352.0 C 734.5 350.3, 733.5 348.7, 733.0 347.0 C 732.5 345.3, 732.5 343.7, 732.0 342.0 C 731.5 340.3, 730.5 338.7, 730.0 337.0 C 729.5 335.3, 729.5 333.7, 729.0 332.0 C 728.5 330.3, 727.7 328.7, 727.0 327.0 C 726.3 325.3, 725.7 323.7, 725.0 322.0 C 724.3 320.3, 723.7 318.7, 723.0 317.0 C 722.3 315.3, 721.7 313.7, 721.0 312.0 C 720.3 310.3, 719.7 308.7, 719.0 307.0 C 718.3 305.3, 717.7 303.7, 717.0 302.0 C 716.3 300.3, 715.7 298.7, 715.0 297.0 C 714.3 295.3, 713.8 293.7, 713.0 292.0 C 712.2 290.3, 710.8 288.7, 710.0 287.0 C 709.2 285.3, 708.8 283.7, 708.0 282.0 C 707.2 280.3, 705.8 278.7, 705.0 277.0 C 704.2 275.3, 703.8 273.7, 703.0 272.0 C 702.2 270.3, 701.0 268.7, 700.0 267.0 C 699.0 265.3, 698.0 263.7, 697.0 262.0 C 696.0 260.3, 695.0 258.7, 694.0 257.0 C 693.0 255.3, 692.0 253.7, 691.0 252.0 C 690.0 250.3, 689.2 248.7, 688.0 247.0 C 686.8 245.3, 685.2 243.7, 684.0 242.0 C 682.8 240.3, 682.2 238.7, 681.0 237.0 C 679.8 235.3, 678.3 233.7, 677.0 232.0 C 675.7 230.3, 674.3 228.7, 673.0 227.0 C 671.7 225.3, 670.3 223.7, 669.0 222.0 C 667.7 220.3, 666.5 218.7, 665.0 217.0 C 663.5 215.3, 661.7 213.7, 660.0 212.0 C 658.3 210.3, 656.7 208.7, 655.0 207.0 C 653.3 205.3, 651.7 203.7, 650.0 202.0 C 648.3 200.3, 646.7 198.5, 645.0 197.0 C 643.3 195.5, 641.7 194.5, 640.0 193.0 C 638.3 191.5, 636.7 189.5, 635.0 188.0 C 633.3 186.5, 631.7 185.2, 630.0 184.0 C 628.3 182.8, 626.7 182.2, 625.0 181.0 C 623.3 179.8, 621.7 178.2, 620.0 177.0 C 618.3 175.8, 616.7 175.0, 615.0 174.0 C 613.3 173.0, 611.7 172.0, 610.0 171.0 C 608.3 170.0, 606.7 169.0, 605.0 168.0 C 603.3 167.0, 601.7 166.0, 600.0 165.0 C 598.3 164.0, 596.7 162.8, 595.0 162.0 C 593.3 161.2, 591.7 160.7, 590.0 160.0 C 588.3 159.3, 586.7 158.8, 585.0 158.0 C 583.3 157.2, 581.7 155.8, 580.0 155.0 C 578.3 154.2, 576.7 153.5, 575.0 153.0 C 573.3 152.5, 571.7 152.5, 570.0 152.0 C 568.3 151.5, 566.7 150.7, 565.0 150.0 C 563.3 149.3, 561.7 148.5, 560.0 148.0 C 558.3 147.5, 556.7 147.3, 555.0 147.0 C 553.3 146.7, 551.7 146.3, 550.0 146.0 C 548.3 145.7, 546.7 145.5, 545.0 145.0 C 543.3 144.5, 541.7 143.3, 540.0 143.0 C 538.3 142.7, 536.7 143.2, 535.0 143.0 C 533.3 142.8, 531.7 142.3, 530.0 142.0 C 528.3 141.7, 526.7 141.3, 525.0 141.0 C 523.3 140.7, 521.7 140.2, 520.0 140.0 C 518.3 139.8, 516.7 140.0, 515.0 140.0 C 513.3 140.0, 511.7 140.0, 510.0 140.0 C 508.3 140.0, 506.7 140.2, 505.0 140.0 C 503.3 139.8, 501.8 139.2, 500.0 139.0 C 498.2 138.8, 495.2 139.0, 494.0 139.0 C 492.8 139.0, 494.0 138.8, 493.0 139.0 Z" fill="#2D4F3C" fill-rule="evenodd"/></g></svg>